<?xml version="1.0" encoding="UTF-8" standalone="no"?>
<svg
   xmlns:dc="http://purl.org/dc/elements/1.1/"
   xmlns:cc="http://creativecommons.org/ns#"
   xmlns:rdf="http://www.w3.org/1999/02/22-rdf-syntax-ns#"
   xmlns:svg="http://www.w3.org/2000/svg"
   xmlns="http://www.w3.org/2000/svg"
   xmlns:sodipodi="http://sodipodi.sourceforge.net/DTD/sodipodi-0.dtd"
   xmlns:inkscape="http://www.inkscape.org/namespaces/inkscape"
   id="Layer_1"
   data-name="Layer 1"
   viewBox="0 0 1000 1000"
   version="1.1"
   sodipodi:docname="legend_goal-13.svg"
   inkscape:version="0.92.2 5c3e80d, 2017-08-06">
  <metadata
     id="metadata7061">
    <rdf:RDF>
      <cc:Work
         rdf:about="">
        <dc:format>image/svg+xml</dc:format>
        <dc:type
           rdf:resource="http://purl.org/dc/dcmitype/StillImage" />
        <dc:title>Artboard 1</dc:title>
      </cc:Work>
    </rdf:RDF>
  </metadata>
  <sodipodi:namedview
     pagecolor="#ffffff"
     bordercolor="#666666"
     borderopacity="1"
     objecttolerance="10"
     gridtolerance="10"
     guidetolerance="10"
     inkscape:pageopacity="0"
     inkscape:pageshadow="2"
     inkscape:window-width="690"
     inkscape:window-height="480"
     id="namedview7059"
     showgrid="false"
     inkscape:zoom="0.236"
     inkscape:cx="572.0339"
     inkscape:cy="500"
     inkscape:window-x="0"
     inkscape:window-y="0"
     inkscape:window-maximized="0"
     inkscape:current-layer="Layer_1" />
  <defs
     id="defs7020">
    <style
       id="style7018">
      .cls-1 {
        fill: #3f7e44;
      }

      .cls-2 {
        fill: #fff;
      }
    </style>
  </defs>
  <title
     id="title7022">Artboard 1</title>
  <rect
     class="cls-1"
     width="1000"
     height="1000"
     id="rect7024" />
  <path
     class="cls-2"
     d="M 888.11322,495.59647 C 860.25416,456.57264 734.24873,300.58303 500,300.58303 c -234.24873,0 -360.19072,155.98961 -388.09208,195.01344 -1.18414,1.67049 -2.20969,3.17181 -3.03436,4.34538 0.82467,1.25815 1.85022,2.69604 3.03436,4.38767 27.90136,39.08727 153.8645,195.08745 388.09208,195.08745 234.22758,0 360.25416,-156.00018 388.11322,-195.04516 1.21586,-1.69163 2.22027,-3.17181 3.01322,-4.38767 q -1.18414,-1.83965 -3.01322,-4.34538 M 369.3743,399.21574 c 2.11454,-3.0978 9.12424,-11.93657 9.97006,-13.05728 1.80793,-2.32599 5.39207,-2.80177 7.8978,-3.24582 2.50573,-0.44405 5.80441,0.91983 6.20618,2.79119 0.40176,1.87137 -0.96212,9.12424 -2.18855,10.37182 -3.43613,3.563 -12.38063,8.59561 -17.30751,7.80265 -3.81675,-0.58149 -5.28635,-3.53128 -4.57798,-4.66256 m -8.37358,16.64143 c 0.37005,-0.44405 0.70837,-0.80352 0.84582,-0.98326 2.94978,-3.36212 8.81763,-4.08106 12.86697,-4.71542 4.04935,-0.63436 9.51543,1.3533 10.12865,4.04934 0.61322,2.69604 -10.18151,7.61235 -12.16918,9.51543 -5.63525,5.1912 -14.45288,15.7639 -19.61236,16.91632 a 6.1956018,6.1956018 0 0 1 -4.22907,-0.43348 161.65657,161.65657 0 0 1 12.1586,-24.31721 m 87.65825,179.82047 c -3.17181,12.47579 -6.87225,16.96918 -10.02292,20.90223 -3.15066,3.93304 -14.80178,9.0608 -22.20267,8.51102 -7.40089,-0.54978 -8.45816,-20.35244 -8.45816,-30.54453 0,-3.51013 -4.97974,6.91455 -7.58062,-14.28371 -1.65992,-13.56478 -10.37182,1.41674 -10.98504,-7.63349 -0.61321,-9.05023 -4.96917,-7.23173 -9.51543,-12.87755 -4.54626,-5.64582 -10.23437,0.54978 -16.59913,3.40441 -6.36477,2.85463 -3.7216,4.29251 -12.68724,1.45903 -0.2326,-0.074 -0.3489,-0.13744 -0.57093,-0.22203 a 162.59754,162.59754 0 0 1 -12.91984,-63.54192 c 0,-5.50838 0.29604,-10.93217 0.8141,-16.28196 a 9.7268834,9.7268834 0 0 1 1.00441,-1.52246 c 8.62732,-10.21323 8.45816,-12.60266 8.45816,-12.60266 l 9.51542,-3.29868 c 0,0 15.24584,2.34713 26.72779,6.67137 9.46256,3.54185 24.31721,11.56653 33.01854,8.03525 6.26961,-2.57974 11.16477,-6.00529 10.5727,-11.21763 -0.6978,-6.5445 -5.85728,-8.09869 -12.09517,-3.68988 -2.29428,1.6282 -7.20001,-9.86432 -11.04847,-9.27225 -3.84846,0.59207 4.75771,13.49076 1.50132,14.04054 -3.25639,0.54978 -9.84318,-13.46962 -10.96389,-15.74275 -1.1207,-2.27313 -6.18503,-7.88723 -10.74186,-3.59472 -9.62116,9.14539 -25.24761,8.58504 -28.3877,10.94275 -9.51543,7.14714 -12.07402,-2.35771 -11.86257,-8.14098 0.38062,-1.32159 0.77181,-2.65375 1.19472,-3.96476 3.11895,-3.43613 14.31543,-4.57798 18.1639,-2.01939 4.22908,2.82291 7.25287,-0.71894 8.90221,-2.43172 1.64934,-1.71278 1.05727,-4.38767 0,-6.62908 -1.05727,-2.24141 2.11454,-3.93305 4.29252,-4.51454 2.17797,-0.5815 9.46256,-5.67754 12.37005,-7.40089 2.9075,-1.72335 17.97359,-3.52071 24.77184,-0.13745 a 13.131293,13.131293 0 0 0 16.29253,-3.28811 43.601812,43.601812 0 0 1 11.83085,-9.86433 c 2.36828,-1.05727 -5.82556,-8.74362 -12.5498,-0.41233 -6.72423,8.33129 -10.1815,9.05023 -13.35331,9.05023 -3.17181,0 -22.01236,-4.69428 -24.31721,-10.64671 -2.30485,-5.95243 5.89956,-10.40354 12.84583,-13.74451 6.94626,-3.34097 25.97712,-3.26696 30.84056,-4.36652 9.88547,-2.16741 22.53042,-7.13658 28.89519,-2.80177 6.36476,4.33481 -26.59034,11.75684 -15.7639,17.60355 3.84847,2.11454 21.25113,-10.01235 27.2247,-13.12072 14.02998,-7.23173 -13.60706,-9.62116 -10.02291,-24.31721 4.04934,-16.62029 -33.90665,-10.19209 -52.8635,-8.77534 a 163.13675,163.13675 0 0 1 246.5342,99.30936 26.812366,26.812366 0 0 1 -0.79295,7.55948 c -1.48018,5.87842 -12.68724,10.93217 -19.10487,1.46961 -1.64934,-2.38943 -8.64847,-8.99737 -8.45816,2.30485 0.19031,11.30221 10.99561,12.46521 0.56036,19.25288 -10.43526,6.78767 -12.32777,5.14891 -17.14892,6.86168 -4.82115,1.71278 -9.51543,13.35332 -8.32072,19.58064 1.19472,6.22732 16.03879,23.25994 5.00089,22.541 -2.59031,-0.20088 -22.08637,-13.51191 -25.30047,-22.0758 -3.40441,-9.01851 -7.10485,-17.83614 -9.73746,-24.63439 -2.6326,-6.79824 -9.51543,-8.45816 -15.3727,-4.51454 -5.85728,3.94362 1.61762,7.9401 -2.55859,16.44055 -4.17622,8.50045 -7.14715,16.05993 -13.26874,9.05023 -15.93306,-18.24848 -39.11899,-9.25111 -42.70313,-29.60356 -1.95595,-11.00618 -11.43967,-9.94891 -19.36919,-16.1868 -7.92952,-6.2379 -12.40178,-9.51543 -13.74451,-5.08547 -1.17357,3.94361 24.941,24.65553 26.80179,29.95245 2.78062,7.88724 -7.81322,14.80178 -15.57358,16.70487 -7.76036,1.90309 -11.12248,-4.34538 -18.73483,-12.2749 -7.61234,-7.92953 -10.92159,-13.5542 -11.45023,-7.33746 -0.76123,8.97622 7.22115,22.20267 14.96037,27.08726 6.60794,4.17621 14.00883,6.06873 11.86257,12.8564 -2.14626,6.78767 0,2.96036 -7.40089,10.27666 -7.40089,7.31631 -8.81763,9.71632 -8.27842,19.87668 0.5392,10.16036 -2.11454,10.77358 -3.71102,19.24231 -1.59648,8.46873 -5.28635,1.14185 -8.45816,13.56478 m 175.09447,-65.03268 c 5.47666,-0.44405 13.74451,7.15772 10.49869,10.07578 -3.24581,2.91807 -11.42908,1.83965 -15.56301,-1.39559 -4.13393,-3.23525 2.59031,-8.45816 5.06432,-8.68019 m -6.94626,-5.01146 c -1.75507,-0.65551 -3.30926,-2.32599 -4.64142,-6.34362 -1.33216,-4.01762 2.04054,-6.34362 5.28635,-4.6837 3.24582,1.65991 7.69693,6.69252 7.69693,9.35684 0,2.66432 -6.58679,2.35771 -8.38415,1.64934 m -72.01066,-0.28547 c -3.22467,2.87578 -11.47138,1.81851 -15.59473,-1.39559 -4.12335,-3.2141 2.60089,-8.45816 5.05375,-8.68019 5.48723,-0.49692 13.74451,7.17886 10.5727,10.07578 m -66.608,32.40533 c -2.24142,3.66872 -8.38415,31.10488 -12.49693,27.91192 -4.11279,-3.19295 1.67048,-31.82382 2.85462,-34.0018 6.44935,-11.82028 20.38417,-11.23878 9.64231,6.08988 m 22.20266,106.34021 a 163.10503,163.10503 0 0 1 -45.85379,-6.56565 6.7136641,6.7136641 0 0 1 -1.9771,-7.97181 c 5.04318,-13.16301 20.08813,-18.32249 31.9507,-19.46434 26.43175,-2.57974 61.23707,17.18063 66.7666,13.98768 5.52952,-3.19296 16.73658,-17.73042 33.14541,-17.1172 11.20706,0.43348 11.12248,2.31542 14.88636,3.73216 a 162.53411,162.53411 0 0 1 -98.91818,33.39916 m 115.08384,-47.49257 a 27.266992,27.266992 0 0 1 -5.11719,-1.89251 c -8.91279,-4.53569 -7.84494,2.70661 -12.22204,1.05727 -4.3771,-1.64934 4.93745,-11.78856 -8.21499,-3.17181 -13.15244,8.61675 -9.56829,-1.33216 -15.27755,-15.85905 -5.70926,-14.52689 6.57622,-31.11545 16.91632,-34.88991 14.17799,-5.12776 22.97448,-6.17445 29.60356,-7.81322 19.60178,-4.89516 23.74628,-16.52513 27.29871,-9.452 0.67665,1.32159 1.32159,2.59032 1.91366,3.77446 a 25.765668,25.765668 0 0 1 2.47401,10.73129 163.32706,163.32706 0 0 1 -37.40621,57.55777 m 44.70137,-82.3719 c -4.3771,-1.19471 -22.69958,-26.5269 -8.21499,-43.18947 2.41058,-2.73833 -4.86344,-10.8053 -2.87577,-10.96389 7.92952,-0.61322 12.13746,4.30308 14.22028,11.38679 0.15859,3.17181 0.28546,6.28019 0.28546,9.51543 a 164.59578,164.59578 0 0 1 -3.41498,33.30401"
     id="path7030"
     inkscape:connector-curvature="0"
     style="fill:#ffffff;stroke-width:1.05726993" />
</svg>
