<?xml version="1.0" encoding="UTF-8" standalone="no"?>
<svg
   xmlns:dc="http://purl.org/dc/elements/1.1/"
   xmlns:cc="http://creativecommons.org/ns#"
   xmlns:rdf="http://www.w3.org/1999/02/22-rdf-syntax-ns#"
   xmlns:svg="http://www.w3.org/2000/svg"
   xmlns="http://www.w3.org/2000/svg"
   xmlns:sodipodi="http://sodipodi.sourceforge.net/DTD/sodipodi-0.dtd"
   xmlns:inkscape="http://www.inkscape.org/namespaces/inkscape"
   id="Layer_1"
   data-name="Layer 1"
   viewBox="0 0 1000 1000"
   version="1.1"
   sodipodi:docname="legend_goal_1.svg"
   inkscape:version="0.92.2 5c3e80d, 2017-08-06">
  <metadata
     id="metadata3942">
    <rdf:RDF>
      <cc:Work
         rdf:about="">
        <dc:format>image/svg+xml</dc:format>
        <dc:type
           rdf:resource="http://purl.org/dc/dcmitype/StillImage" />
        <dc:title>Artboard 1</dc:title>
      </cc:Work>
    </rdf:RDF>
  </metadata>
  <sodipodi:namedview
     pagecolor="#ffffff"
     bordercolor="#666666"
     borderopacity="1"
     objecttolerance="10"
     gridtolerance="10"
     guidetolerance="10"
     inkscape:pageopacity="0"
     inkscape:pageshadow="2"
     inkscape:window-width="1372"
     inkscape:window-height="728"
     id="namedview3940"
     showgrid="false"
     inkscape:zoom="0.546"
     inkscape:cx="646.52015"
     inkscape:cy="500"
     inkscape:window-x="0"
     inkscape:window-y="0"
     inkscape:window-maximized="0"
     inkscape:current-layer="Layer_1" />
  <defs
     id="defs3877">
    <style
       id="style3875">
      .cls-1 {
        fill: #e5243b;
      }

      .cls-2 {
        fill: #fff;
      }
    </style>
  </defs>
  <title
     id="title3879">Artboard 1</title>
  <rect
     class="cls-1"
     width="1000"
     height="1000"
     id="rect3881" />
  <g
     id="g3907"
     transform="matrix(1.0480658,0,0,1.0336323,-12.207996,-132.33046)">
    <path
       class="cls-2"
       d="m 770.13,477.09 a 27.67,27.67 0 1 1 27.7,27.69 27.7,27.7 0 0 1 -27.7,-27.69"
       id="path3903"
       inkscape:connector-curvature="0"
       style="fill:#ffffff" />
    <path
       class="cls-2"
       d="m 830.15,515.45 a 36.89,36.89 0 0 1 33.5,36.77 V 629 a 10.73,10.73 0 0 1 -21.46,0 v -65.95 c 0,-2.48 -0.71,-5.82 -5.23,-5.82 -3.13,0 -3.78,3.31 -3.89,5.42 v 197.54 a 15.43,15.43 0 0 1 -30.86,0 V 646.36 c 0,-1.26 -0.46,-4.52 -4.38,-4.52 v 0 c -3.93,0 -4.41,3.26 -4.45,4.52 v 113.83 a 15.42,15.42 0 1 1 -30.83,0 V 562.65 c -0.1,-2.11 -0.78,-5.42 -3.88,-5.42 -4.54,0 -5.23,3.34 -5.23,5.82 V 629 A 10.73,10.73 0 0 1 732,629 v -76.78 a 36.91,36.91 0 0 1 33.55,-36.77 15.26,15.26 0 0 1 2,-0.17 H 828 a 16.4,16.4 0 0 1 2.11,0.17"
       id="path3905"
       inkscape:connector-curvature="0"
       style="fill:#ffffff" />
  </g>
  <g
     id="g3913"
     transform="matrix(1.0480658,0,0,1.0336323,-12.207996,-132.33046)">
    <path
       class="cls-2"
       d="m 605.5,491.63 a 26.21,26.21 0 1 0 -26.19,26.22 26.21,26.21 0 0 0 26.19,-26.22"
       id="path3909"
       inkscape:connector-curvature="0"
       style="fill:#ffffff" />
    <path
       class="cls-2"
       d="m 526.48,551 -21.79,71 c 0,0 -3.88,13 7.15,16.25 11.03,3.25 14.31,-9.44 14.31,-9.44 l 17.57,-59.21 c 0,0 1,-4.56 4.38,-3.57 3.38,0.99 2.14,5.85 2.14,5.85 l -30.58,111 h 28.44 v 79.47 a 13.66,13.66 0 0 0 27.31,0 v -79.56 h 7.76 v 79.47 a 13.67,13.67 0 0 0 27.33,0 v -79.47 h 28.43 l -30.56,-111 c 0,0 -1.29,-4.79 2.13,-5.79 3.42,-1 4.38,3.57 4.38,3.57 l 17.57,59.21 c 0,0 3.34,12.69 14.3,9.44 10.96,-3.25 7.15,-16.22 7.15,-16.22 l -21.79,-71 c 0,0 -7.78,-20.51 -25,-20.51 h -55.58 c -17.24,0 -25,20.51 -25,20.51"
       id="path3911"
       inkscape:connector-curvature="0"
       style="fill:#ffffff" />
  </g>
  <g
     id="g3919"
     transform="matrix(1.0480658,0,0,1.0336323,-12.207996,-132.33046)">
    <path
       class="cls-2"
       d="m 448.49,491.63 a 26.21,26.21 0 1 0 -26.2,26.22 26.22,26.22 0 0 0 26.2,-26.22"
       id="path3915"
       inkscape:connector-curvature="0"
       style="fill:#ffffff" />
    <path
       class="cls-2"
       d="m 369.46,551 -21.78,71 c 0,0 -3.9,13 7.14,16.25 11.04,3.25 14.31,-9.44 14.31,-9.44 L 386.7,569.6 c 0,0 0.95,-4.56 4.38,-3.57 3.43,0.99 2.13,5.85 2.13,5.85 l -30.57,111 h 28.44 v 79.47 a 13.66,13.66 0 0 0 27.32,0 v -79.56 h 7.76 v 79.47 a 13.66,13.66 0 0 0 27.31,0 v -79.47 h 28.45 l -30.56,-111 c 0,0 -1.3,-4.87 2.11,-5.85 3.41,-0.98 4.39,3.57 4.39,3.57 l 17.56,59.21 c 0,0 3.34,12.69 14.31,9.44 10.97,-3.25 7.14,-16.16 7.14,-16.16 l -21.79,-71 c 0,0 -7.77,-20.51 -25,-20.51 h -55.57 c -17.23,0 -25.05,20.51 -25.05,20.51"
       id="path3917"
       inkscape:connector-curvature="0"
       style="fill:#ffffff" />
  </g>
  <g
     id="g3925"
     transform="matrix(1.0480658,0,0,1.0336323,-12.207996,-132.33046)">
    <path
       class="cls-2"
       d="m 693.54,638.35 a 21.82,21.82 0 1 0 -21.82,-21.84 21.8,21.8 0 0 0 21.82,21.84"
       id="path3921"
       inkscape:connector-curvature="0"
       style="fill:#ffffff" />
    <path
       class="cls-2"
       d="m 641.23,706.13 c -1.07,2.55 -1.94,8 3.18,10.32 6,2.76 9.35,-3 9.35,-3 l 11.86,-37.83 c 0,0 2.06,-2.53 2.06,0.09 v 89.05 h 0.05 a 11.2,11.2 0 0 0 22.39,0 v -35.19 c 0,0 -0.65,-5 3.36,-5 4.01,0 3.38,5 3.38,5 v 35.15 a 11.22,11.22 0 0 0 22.44,0 v -89.05 c 0,-2.62 1.38,-0.75 1.38,-0.75 l 9.3,25.9 c 0,0 4,11.57 5.28,12.08 a 8.26,8.26 0 0 0 10.81,-4.47 8.16,8.16 0 0 0 -0.88,-8 l 0.08,-0.08 c -0.27,-0.84 -13.9,-34.26 -15.5,-38.95 -4.92,-14.37 -13.88,-14.24 -22.5,-14.48 -8.62,-0.24 -13.79,0 -13.79,0 0,0 -5.51,-0.22 -16.9,0.11 -11.39,0.33 -15,6.19 -27.51,38.46 -1.79,4.65 -7.84,19.68 -7.92,20.58 z"
       id="path3923"
       inkscape:connector-curvature="0"
       style="fill:#ffffff" />
  </g>
  <g
     id="g3931"
     transform="matrix(1.0480658,0,0,1.0336323,-12.207996,-132.33046)">
    <path
       class="cls-2"
       d="M 186.66,504.78 A 27.69,27.69 0 1 0 159,477.09 a 27.72,27.72 0 0 0 27.66,27.69 z"
       id="path3927"
       inkscape:connector-curvature="0"
       style="fill:#ffffff" />
    <path
       class="cls-2"
       d="M 219.22,515.31 A 18.06,18.06 0 0 0 217,515 h -60.5 a 13.66,13.66 0 0 0 -2,0.31 37,37 0 0 0 -33.5,36.91 V 629 a 10.66,10.66 0 0 0 5.61,9.46 4.07,4.07 0 0 0 -0.36,0.94 l -24.6,130.3 a 4,4 0 0 0 3.22,4.74 3.81,3.81 0 0 0 0.75,0.07 4.05,4.05 0 0 0 4,-3.31 L 134.2,640.9 A 4,4 0 0 0 134.05,639.39 10.62,10.62 0 0 0 142,629 v -65.95 c 0,-2.48 0.65,-5.82 5.17,-5.82 3.12,0 3.83,3.31 3.83,5.42 v 197.54 a 15.5,15.5 0 0 0 31,0 V 646.36 a 4.3,4.3 0 0 1 4.66,-4.36 v 0 c 3.93,0 4.33,3.1 4.33,4.36 v 113.83 a 15.5,15.5 0 0 0 31,0 V 562.65 c 0,-2.11 0.74,-5.42 3.83,-5.42 4.55,0 5.17,3.34 5.17,5.82 V 629 a 11,11 0 0 0 22,0 v -76.78 a 37.25,37.25 0 0 0 -33.77,-36.91 z"
       id="path3929"
       inkscape:connector-curvature="0"
       style="fill:#ffffff" />
  </g>
  <g
     id="g3937"
     transform="matrix(1.0480658,0,0,1.0336323,-12.207996,-132.33046)">
    <path
       class="cls-2"
       d="m 326.16,674.41 20.25,-36.75 c 0,0 2.44,-5.28 2.44,-6.54 a 8,8 0 0 0 -14.72,-4.21 h -0.09 c -0.64,0.55 -10.83,18.63 -14.19,22 -3.55,3.59 -6.74,3.14 -6.74,3.14 h -26.44 c 0,0 -3.2,0.45 -6.74,-3.14 -3.4,-3.36 -13.54,-21.47 -14.19,-22 l -0.07,0.06 a 8,8 0 0 0 -14.67,4.14 14.41,14.41 0 0 0 0.78,3.49 l 21.95,39.81 a 14.62,14.62 0 0 1 1.29,5.25 v 7.84 L 263.5,730 H 275 v 35 h 0.15 A 10.94,10.94 0 0 0 286.09,775.83 10.81,10.81 0 0 0 297,765.14 V 731.41 A 1.8,1.8 0 0 1 296.62,730 h 6.5 a 3.39,3.39 0 0 1 -0.12,1.41 v 33.73 a 11,11 0 0 0 22,0 V 730 h 11.29 L 325,687.25 v -7.59 a 15.92,15.92 0 0 1 1.16,-5.25 z"
       id="path3933"
       inkscape:connector-curvature="0"
       style="fill:#ffffff" />
    <path
       class="cls-2"
       d="m 299.88,638.35 a 21.82,21.82 0 1 0 -21.81,-21.84 21.8,21.8 0 0 0 21.81,21.84 z"
       id="path3935"
       inkscape:connector-curvature="0"
       style="fill:#ffffff" />
  </g>
</svg>
