<?xml version="1.0" encoding="UTF-8" standalone="no"?>
<svg
   xmlns:dc="http://purl.org/dc/elements/1.1/"
   xmlns:cc="http://creativecommons.org/ns#"
   xmlns:rdf="http://www.w3.org/1999/02/22-rdf-syntax-ns#"
   xmlns:svg="http://www.w3.org/2000/svg"
   xmlns="http://www.w3.org/2000/svg"
   xmlns:sodipodi="http://sodipodi.sourceforge.net/DTD/sodipodi-0.dtd"
   xmlns:inkscape="http://www.inkscape.org/namespaces/inkscape"
   id="Layer_1"
   data-name="Layer 1"
   viewBox="0 0 1000 1000"
   version="1.1"
   sodipodi:docname="legend_goal_14.svg"
   inkscape:version="0.92.2 5c3e80d, 2017-08-06">
  <metadata
     id="metadata7322">
    <rdf:RDF>
      <cc:Work
         rdf:about="">
        <dc:format>image/svg+xml</dc:format>
        <dc:type
           rdf:resource="http://purl.org/dc/dcmitype/StillImage" />
        <dc:title>Artboard 1</dc:title>
      </cc:Work>
    </rdf:RDF>
  </metadata>
  <sodipodi:namedview
     pagecolor="#ffffff"
     bordercolor="#666666"
     borderopacity="1"
     objecttolerance="10"
     gridtolerance="10"
     guidetolerance="10"
     inkscape:pageopacity="0"
     inkscape:pageshadow="2"
     inkscape:window-width="690"
     inkscape:window-height="480"
     id="namedview7320"
     showgrid="false"
     inkscape:zoom="0.236"
     inkscape:cx="572.0339"
     inkscape:cy="500"
     inkscape:window-x="0"
     inkscape:window-y="0"
     inkscape:window-maximized="0"
     inkscape:current-layer="Layer_1" />
  <defs
     id="defs7273">
    <style
       id="style7271">
      .cls-1 {
        fill: #0a97d9;
      }

      .cls-2 {
        fill: #fff;
      }
    </style>
  </defs>
  <title
     id="title7275">Artboard 1</title>
  <rect
     class="cls-1"
     width="1000"
     height="1000"
     id="rect7277" />
  <g
     id="g7315"
     transform="matrix(1.3329643,0,0,1.3329643,-166.48176,-334.42899)">
    <path
       class="cls-2"
       d="M 769.58,729.62 C 757,712.62 675.7,609 561.72,609 c -99,0 -204.85,89.76 -204.85,89.76 0,0 -39.77,-81.4 -121.13,-89.22 -0.47,0 -1,-0.11 -1.52,-0.11 h -0.51 c -1.7,0.1 -3.29,1.75 -3.1,3.22 a 9,9 0 0 0 1.27,3 c 10.49,17.35 37.25,66.9 37.25,116.35 0,49.64 -26.92,99.3 -37.31,116.63 l -0.71,1.1 a 3.3,3.3 0 0 0 -0.5,1.72 3.23,3.23 0 0 0 3,3.2 l 0.88,-0.07 a 3.14,3.14 0 0 0 0.85,-0.08 c 81.61,-7.6 121.53,-89.25 121.53,-89.25 0,0 105.88,89.77 204.85,89.77 114,0 195.27,-103.64 207.86,-120.61 0.34,-0.46 0.62,-0.86 0.87,-1.16 a 3.36,3.36 0 0 0 0.27,-1.25 3.18,3.18 0 0 0 -0.27,-1.24 c -0.25,-0.35 -0.53,-0.75 -0.87,-1.17 M 625.1,745.12 a 33.26,33.26 0 1 1 33.3,-33.27 33.28,33.28 0 0 1 -33.3,33.27"
       id="path7309"
       inkscape:connector-curvature="0"
       style="fill:#ffffff" />
    <path
       class="cls-2"
       d="m 233.18,414.17 a 3.46,3.46 0 0 0 -0.63,-0.14 3.29,3.29 0 0 0 -3.27,3.31 V 440 a 3.23,3.23 0 0 0 0.95,2.35 c 55,47.8 107.11,3 119.17,-8.83 a 3.3,3.3 0 0 1 0.86,-0.92 3.36,3.36 0 0 1 1.81,-0.59 3.17,3.17 0 0 1 2.21,0.88 0.52,0.52 0 0 0 0.16,0.14 c 62.15,59.3 127.31,11.27 140.87,0 l 1.33,-1.22 a 2.9,2.9 0 0 1 1.24,-0.25 3,3 0 0 1 1.29,0.25 l 1.35,1.22 c 13.55,11.27 78.71,59.3 140.85,0 a 0.94,0.94 0 0 0 0.12,-0.14 3.2,3.2 0 0 1 2.21,-0.88 3.28,3.28 0 0 1 1.81,0.59 3.62,3.62 0 0 1 0.91,0.92 c 12.05,11.84 64.09,56.63 119.15,8.83 a 3.31,3.31 0 0 0 0.95,-2.35 v -22.66 a 3.25,3.25 0 0 0 -3.23,-3.31 3.47,3.47 0 0 0 -0.7,0.14 c -0.51,0.29 -1,0.57 -1.65,0.86 -16.92,8.47 -69.4,28.63 -117,-16.44 -0.45,-0.41 -0.92,-0.83 -1.39,-1.32 a 3.42,3.42 0 0 0 -1.39,-0.3 5.91,5.91 0 0 0 -1,0.15 3.74,3.74 0 0 0 -1.66,1.29 c -14.2,10.82 -79.36,54.94 -137.39,0.81 l -0.85,-0.83 a 3.64,3.64 0 0 0 -2.36,-1 3.47,3.47 0 0 0 -2.27,1 l -0.9,0.83 c -58,54.13 -123.24,10 -137.42,-0.81 a 3.54,3.54 0 0 0 -1.61,-1.29 6.85,6.85 0 0 0 -1,-0.15 3.72,3.72 0 0 0 -1.37,0.3 13.27,13.27 0 0 1 -1.39,1.32 c -47.63,45.07 -100.1,24.91 -117,16.44 -0.59,-0.29 -1.16,-0.57 -1.67,-0.86"
       id="path7311"
       inkscape:connector-curvature="0"
       style="fill:#ffffff" />
    <path
       class="cls-2"
       d="m 349.4,516.08 a 3.55,3.55 0 0 1 0.87,-0.9 3.36,3.36 0 0 1 1.8,-0.62 3.19,3.19 0 0 1 2.22,0.91 0.5,0.5 0 0 0 0.15,0.14 c 62.13,59.23 127.31,11.22 140.87,0 l 1.33,-1.26 a 3.2,3.2 0 0 1 1.24,-0.21 3.47,3.47 0 0 1 1.31,0.21 l 1.33,1.26 c 13.55,11.22 78.7,59.23 140.86,0 0,0 0.07,-0.08 0.11,-0.14 a 3.18,3.18 0 0 1 2.21,-0.91 3.25,3.25 0 0 1 1.8,0.62 3.58,3.58 0 0 1 0.92,0.9 c 12,11.85 64.08,56.65 119.15,8.8 a 3.18,3.18 0 0 0 1,-2.29 v -22.75 a 3.24,3.24 0 0 0 -3.25,-3.25 4.3,4.3 0 0 0 -0.7,0.13 l -1.65,0.83 c -16.91,8.48 -69.42,28.59 -117,-16.42 l -1.38,-1.3 a 2.64,2.64 0 0 0 -1.4,-0.33 2,2 0 0 0 -1,0.25 2.79,2.79 0 0 0 -1.66,1.22 c -14.18,10.8 -79.36,54.93 -137.4,0.8 l -0.85,-0.85 a 3.35,3.35 0 0 0 -2.35,-0.91 3.22,3.22 0 0 0 -2.27,0.91 l -0.9,0.85 c -58,54.13 -123.24,10 -137.42,-0.8 a 2.71,2.71 0 0 0 -1.61,-1.22 2.25,2.25 0 0 0 -1,-0.25 2.6,2.6 0 0 0 -1.35,0.33 c -0.45,0.45 -0.93,0.88 -1.42,1.3 -47.63,45 -100.09,24.9 -117,16.42 l -1.67,-0.83 a 4.32,4.32 0 0 0 -0.62,-0.13 3.26,3.26 0 0 0 -3.28,3.25 v 22.75 a 3.13,3.13 0 0 0 0.95,2.29 c 55,47.85 107.12,3 119.17,-8.8"
       id="path7313"
       inkscape:connector-curvature="0"
       style="fill:#ffffff" />
  </g>
</svg>
