<?xml version="1.0" encoding="UTF-8" standalone="no"?>
<svg
   xmlns:dc="http://purl.org/dc/elements/1.1/"
   xmlns:cc="http://creativecommons.org/ns#"
   xmlns:rdf="http://www.w3.org/1999/02/22-rdf-syntax-ns#"
   xmlns:svg="http://www.w3.org/2000/svg"
   xmlns="http://www.w3.org/2000/svg"
   xmlns:sodipodi="http://sodipodi.sourceforge.net/DTD/sodipodi-0.dtd"
   xmlns:inkscape="http://www.inkscape.org/namespaces/inkscape"
   id="Layer_1"
   data-name="Layer 1"
   viewBox="0 0 1000 1000"
   version="1.1"
   sodipodi:docname="legend_goal_12.svg"
   inkscape:version="0.92.2 5c3e80d, 2017-08-06">
  <metadata
     id="metadata6772">
    <rdf:RDF>
      <cc:Work
         rdf:about="">
        <dc:format>image/svg+xml</dc:format>
        <dc:type
           rdf:resource="http://purl.org/dc/dcmitype/StillImage" />
        <dc:title>Artboard 1</dc:title>
      </cc:Work>
    </rdf:RDF>
  </metadata>
  <sodipodi:namedview
     pagecolor="#ffffff"
     bordercolor="#666666"
     borderopacity="1"
     objecttolerance="10"
     gridtolerance="10"
     guidetolerance="10"
     inkscape:pageopacity="0"
     inkscape:pageshadow="2"
     inkscape:window-width="690"
     inkscape:window-height="480"
     id="namedview6770"
     showgrid="false"
     inkscape:zoom="0.236"
     inkscape:cx="572.0339"
     inkscape:cy="500"
     inkscape:window-x="0"
     inkscape:window-y="0"
     inkscape:window-maximized="0"
     inkscape:current-layer="Layer_1" />
  <defs
     id="defs6723">
    <style
       id="style6721">
      .cls-1 {
        fill: #bf8b2e;
      }

      .cls-2 {
        fill: #fff;
      }
    </style>
  </defs>
  <title
     id="title6725">Artboard 1</title>
  <rect
     id="_Path_"
     data-name="&lt;Path&gt;"
     class="cls-1"
     y="-0.03"
     width="1000"
     height="1000.06" />
  <path
     id="_Path_4"
     data-name="&lt;Path&gt;"
     class="cls-2"
     d="M 831.02332,338.04745 C 782.55595,299.76559 724.4379,295.64147 701.70173,295.64147 c -11.99204,0 -23.09271,1.06966 -31.2221,3.00693 l -3.18521,0.73687 c -30.69917,7.2499 -82.07838,19.38457 -141.89599,93.61879 l -1.75901,2.17497 a 7.7728439,7.7728439 0 0 0 -1.49751,4.49256 7.9511201,7.9511201 0 0 0 1.05777,3.93397 l 1.3549,2.22251 q 14.80881,24.7804 24.60212,43.03588 a 7.9035798,7.9035798 0 0 0 12.78834,1.79464 c 0.41599,-0.54671 0.84385,-1.12908 1.18852,-1.56882 51.60503,-71.44123 92.08562,-80.9493 118.87459,-87.28404 l 3.36348,-0.7963 a 78.441544,78.441544 0 0 1 16.40142,-1.39056 c 12.45556,0 55.75291,2.068 89.53031,28.73813 30.05738,23.77016 45.29406,61.61227 45.29406,112.61115 0,85.47751 -41.34821,118.85083 -76.06453,131.73425 a 120.76432,120.76432 0 0 1 -42.40597,7.46383 150.51268,150.51268 0 0 1 -63.6565,-14.48791 l -2.48399,-1.18851 C 622.14299,611.53507 577.58582,584.52028 535.4532,499.92227 449.09619,326.40007 376.54965,310.02242 328.51015,299.14757 l -2.51964,-0.5586 c -3.68437,-0.84384 -14.07194,-2.78111 -30.90122,-2.78111 -27.81109,0 -81.31773,5.46714 -127.17038,42.0732 -31.3053,24.95867 -68.648233,73.48546 -68.648233,162.82562 0,54.39802 11.207643,90.32663 39.933873,128.1093 5.39583,7.36875 55.44391,71.99983 151.5348,71.99983 a 233.87465,233.87465 0 0 0 43.87973,-4.30239 c 17.54238,-3.3516 44.61659,-12.02771 74.87601,-34.20527 l 25.25581,22.79558 a 7.5589124,7.5589124 0 0 0 10.25683,-0.4754 6.6556461,6.6556461 0 0 0 1.81841,-4.75403 l 19.53907,-120.37212 v -1.40243 a 7.1310495,7.1310495 0 0 0 -2.37701,-5.25321 7.0359687,7.0359687 0 0 0 -5.06304,-1.86597 v 0 l -117.25823,32.27989 -2.23439,0.36844 a 6.8220373,6.8220373 0 0 0 -3.72003,2.1512 7.2499002,7.2499002 0 0 0 0.49917,10.30436 l 24.28123,21.96364 c -12.76459,7.83227 -25.52916,13.07359 -37.93719,15.4506 a 166.20099,166.20099 0 0 1 -31.09137,3.04259 c -66.40196,0 -99.07405,-43.5826 -100.41707,-45.42479 l -0.65367,-0.90327 c -20.20464,-26.53938 -27.02668,-49.13292 -27.02668,-89.5422 0,-51.17717 14.9752,-89.13812 44.50963,-112.67058 32.86225,-26.2185 75.14937,-28.26273 87.34347,-28.26273 a 82.458701,82.458701 0 0 1 16.63911,1.39055 l 2.59095,0.58237 c 38.34128,8.688 90.84957,20.57308 163.65759,166.80713 38.44824,77.25304 86.66602,127.69332 147.26806,154.31591 7.04785,3.56553 44.64037,21.52389 92.82249,21.52389 a 184.90812,184.90812 0 0 0 64.77369,-11.49288 c 35.39379,-13.20432 117.7574,-58.35576 117.7574,-191.849 -0.0356,-89.2332 -37.9253,-137.86695 -69.706,-162.96824 z"
     inkscape:connector-curvature="0"
     style="fill:#ffffff;stroke-width:1.18850815" />
</svg>
