<?xml version="1.0" encoding="UTF-8" standalone="no"?>
<svg
   xmlns:dc="http://purl.org/dc/elements/1.1/"
   xmlns:cc="http://creativecommons.org/ns#"
   xmlns:rdf="http://www.w3.org/1999/02/22-rdf-syntax-ns#"
   xmlns:svg="http://www.w3.org/2000/svg"
   xmlns="http://www.w3.org/2000/svg"
   xmlns:sodipodi="http://sodipodi.sourceforge.net/DTD/sodipodi-0.dtd"
   xmlns:inkscape="http://www.inkscape.org/namespaces/inkscape"
   id="Layer_1"
   data-name="Layer 1"
   viewBox="0 0 1000 1000"
   version="1.1"
   sodipodi:docname="legend_goal_2.svg"
   inkscape:version="0.92.2 5c3e80d, 2017-08-06">
  <metadata
     id="metadata4163">
    <rdf:RDF>
      <cc:Work
         rdf:about="">
        <dc:format>image/svg+xml</dc:format>
        <dc:type
           rdf:resource="http://purl.org/dc/dcmitype/StillImage" />
        <dc:title>Artboard 1</dc:title>
      </cc:Work>
    </rdf:RDF>
  </metadata>
  <sodipodi:namedview
     pagecolor="#ffffff"
     bordercolor="#666666"
     borderopacity="1"
     objecttolerance="10"
     gridtolerance="10"
     guidetolerance="10"
     inkscape:pageopacity="0"
     inkscape:pageshadow="2"
     inkscape:window-width="1370"
     inkscape:window-height="729"
     id="namedview4161"
     showgrid="false"
     inkscape:zoom="0.472"
     inkscape:cx="640.63944"
     inkscape:cy="524.67976"
     inkscape:window-x="0"
     inkscape:window-y="0"
     inkscape:window-maximized="0"
     inkscape:current-layer="Layer_1" />
  <defs
     id="defs4136">
    <style
       id="style4134">
      .cls-1 {
        fill: #dda63a;
      }

      .cls-2 {
        fill: #fff;
      }
    </style>
  </defs>
  <title
     id="title4138">Artboard 1</title>
  <rect
     id="_Path_"
     data-name="&lt;Path&gt;"
     class="cls-1"
     y="-0.02"
     width="1000"
     height="1000.04" />
  <g
     id="g4146"
     transform="matrix(1.4322641,0,0,1.3689405,-220.37797,-374.221)">
    <path
       id="_Path_3"
       data-name="&lt;Path&gt;"
       class="cls-2"
       d="m 413.12,849.72 v 14.07 a 1.54,1.54 0 0 0 -0.05,0.31 1.63,1.63 0 0 0 0.05,0.33 6.6,6.6 0 0 0 6.48,6.32 c 0,0 0.08,0 0.13,0 h 0.16 165 c 0,0 0.09,0 0.14,0 h 0.15 a 6.63,6.63 0 0 0 6.5,-6.6 c 0,0 0,0 0,0 a 0.07,0.07 0 0 1 0,-0.05 v -15.96 c 92.86,-30.44 162.43,-105.7 177.73,-197.42 0,-0.2 0.06,-0.38 0.09,-0.55 a 5.85,5.85 0 0 0 0.09,-0.92 6.66,6.66 0 0 0 -6.67,-6.67 H 237.14 a 6.67,6.67 0 0 0 -6.69,6.67 l 0.35,3 c 16.07,92.59 87.54,168.27 182.32,197.47"
       inkscape:connector-curvature="0"
       style="fill:#ffffff" />
    <path
       id="_Path_4"
       data-name="&lt;Path&gt;"
       class="cls-2"
       d="m 591.49,418.2 c -2.17,3.08 -53,76.21 1.13,135.34 24.81,27.14 22.66,51.08 15.58,67.25 h 34.7 c 7,-23.87 4.12,-53.82 -24,-84.6 -39.86,-43.58 0.51,-102.47 1.12,-103.38 4.76,-6.72 2.21,-15.38 -5.63,-19.42 -7.84,-4.04 -18.07,-1.87 -22.85,4.81"
       inkscape:connector-curvature="0"
       style="fill:#ffffff" />
    <path
       id="_Path_5"
       data-name="&lt;Path&gt;"
       class="cls-2"
       d="m 503.61,620.79 h 34.71 c 7,-23.88 4.11,-53.82 -24.06,-84.6 -39.88,-43.58 0.46,-102.45 1.1,-103.41 4.73,-6.69 2.23,-15.34 -5.64,-19.39 -7.87,-4.05 -18.06,-1.88 -22.82,4.81 -2.18,3.07 -53,76.21 1.13,135.34 24.81,27.14 22.64,51.09 15.58,67.25"
       inkscape:connector-curvature="0"
       style="fill:#ffffff" />
    <path
       id="_Path_6"
       data-name="&lt;Path&gt;"
       class="cls-2"
       d="m 382.29,418.2 c -2.2,3.08 -53,76.21 1.12,135.34 24.82,27.15 22.67,51.09 15.6,67.25 h 34.7 c 7,-23.86 4.12,-53.81 -24.08,-84.6 -39.87,-43.58 0.5,-102.47 1.14,-103.4 4.71,-6.7 2.2,-15.36 -5.67,-19.4 -7.87,-4.04 -18.05,-1.88 -22.81,4.81"
       inkscape:connector-curvature="0"
       style="fill:#ffffff" />
  </g>
</svg>
