<?xml version="1.0" encoding="UTF-8" standalone="no"?>
<svg
   xmlns:dc="http://purl.org/dc/elements/1.1/"
   xmlns:cc="http://creativecommons.org/ns#"
   xmlns:rdf="http://www.w3.org/1999/02/22-rdf-syntax-ns#"
   xmlns:svg="http://www.w3.org/2000/svg"
   xmlns="http://www.w3.org/2000/svg"
   xmlns:sodipodi="http://sodipodi.sourceforge.net/DTD/sodipodi-0.dtd"
   xmlns:inkscape="http://www.inkscape.org/namespaces/inkscape"
   id="Layer_1"
   data-name="Layer 1"
   viewBox="0 0 1000 1000"
   version="1.1"
   sodipodi:docname="legend_goal_15.svg"
   inkscape:version="0.92.2 5c3e80d, 2017-08-06">
  <metadata
     id="metadata7591">
    <rdf:RDF>
      <cc:Work
         rdf:about="">
        <dc:format>image/svg+xml</dc:format>
        <dc:type
           rdf:resource="http://purl.org/dc/dcmitype/StillImage" />
        <dc:title>Artboard 1</dc:title>
      </cc:Work>
    </rdf:RDF>
  </metadata>
  <sodipodi:namedview
     pagecolor="#ffffff"
     bordercolor="#666666"
     borderopacity="1"
     objecttolerance="10"
     gridtolerance="10"
     guidetolerance="10"
     inkscape:pageopacity="0"
     inkscape:pageshadow="2"
     inkscape:window-width="690"
     inkscape:window-height="480"
     id="namedview7589"
     showgrid="false"
     inkscape:zoom="0.236"
     inkscape:cx="572.0339"
     inkscape:cy="500"
     inkscape:window-x="0"
     inkscape:window-y="0"
     inkscape:window-maximized="0"
     inkscape:current-layer="Layer_1" />
  <defs
     id="defs7542">
    <style
       id="style7540">
      .cls-1 {
        fill: #56c02b;
      }

      .cls-2 {
        fill: #fff;
      }
    </style>
  </defs>
  <title
     id="title7544">Artboard 1</title>
  <rect
     class="cls-1"
     width="1000"
     height="1000"
     id="rect7546" />
  <g
     id="g7586"
     transform="matrix(1.4585566,0,0,1.4585566,-229.27828,-429.84037)">
    <path
       class="cls-2"
       d="m 419.19,676.12 a 2.21,2.21 0 0 1 2.21,2.21 v 72.82 a 2.2,2.2 0 0 1 -2.21,2.21 h -29.46 a 2.21,2.21 0 0 1 -2.22,-2.21 v -72.82 a 2.21,2.21 0 0 1 2.22,-2.21 z"
       id="path7572"
       inkscape:connector-curvature="0"
       style="fill:#ffffff" />
    <path
       class="cls-2"
       d="M 742.8,784.62 H 257.19 a 2.28,2.28 0 0 0 -2.22,2.29 v 29.68 a 2.21,2.21 0 0 0 2.22,2.18 H 742.8 a 2.24,2.24 0 0 0 2.23,-2.18 v -29.68 a 2.3,2.3 0 0 0 -2.23,-2.29"
       id="path7574"
       inkscape:connector-curvature="0"
       style="fill:#ffffff" />
    <path
       class="cls-2"
       d="M 742.8,843.61 H 257.19 A 2.22,2.22 0 0 0 255,845.8 v 29.77 a 2.23,2.23 0 0 0 2.22,2.19 H 742.8 a 2.25,2.25 0 0 0 2.23,-2.19 V 845.8 a 2.24,2.24 0 0 0 -2.23,-2.19"
       id="path7576"
       inkscape:connector-curvature="0"
       style="fill:#ffffff" />
    <path
       class="cls-2"
       d="m 650.39,595.52 c -6.06,-4.75 -22.26,-15.83 -42,-15.83 -14.12,0 -27.25,5.56 -39,16.57 a 4.19,4.19 0 0 0 -1.3,3 V 602 a 4.19,4.19 0 0 0 1.39,3.32 3.88,3.88 0 0 0 3.42,0.8 5.28,5.28 0 0 0 0.91,-0.23 6.7,6.7 0 0 0 2.43,-1.54 c 2.54,-1.71 9.5,-4 19.45,-4 10.28,0 30.5,2.76 50,21 l 0.45,0.4 a 5.87,5.87 0 0 0 4.22,1.76 5.72,5.72 0 0 0 4.11,-1.72 l 0.4,-0.41 c 19.64,-18.24 39.82,-21 50.1,-21 10,0 17,2.34 19.5,4 a 7.21,7.21 0 0 0 2.69,1.64 5.93,5.93 0 0 0 2.84,-0.02 4.16,4.16 0 0 0 3.06,-4 v -2.34 a 4.22,4.22 0 0 0 -1.3,-3 c -11.86,-11.3 -25.13,-17 -39.47,-17 -19.57,0 -35.69,10.91 -41.93,15.85"
       id="path7578"
       inkscape:connector-curvature="0"
       style="fill:#ffffff" />
    <path
       class="cls-2"
       d="m 620.26,402 a 4.07,4.07 0 0 0 -2.12,2.56 l -0.49,1.62 a 4.11,4.11 0 0 0 0.64,3.65 4,4 0 0 0 3,1.64 1.59,1.59 0 0 0 0.61,0 5.15,5.15 0 0 0 2.34,-0.6 12.21,12.21 0 0 1 3,-0.33 c 2.17,0 21.75,0.66 34.69,22.66 l 0.17,0.32 a 4.94,4.94 0 0 0 3.1,2.48 5.91,5.91 0 0 0 1.55,0.24 5.25,5.25 0 0 0 2.45,-0.6 l 0.32,-0.16 a 48.39,48.39 0 0 1 21.66,-5.36 c 12.27,0 20.28,5 22.15,7.09 a 5.6,5.6 0 0 0 1.57,1.79 11.43,11.43 0 0 0 1.58,0.76 3.29,3.29 0 0 0 0.72,0.1 2,2 0 0 0 0.43,0 4.21,4.21 0 0 0 1.93,-0.48 4.1,4.1 0 0 0 2.06,-2.49 l 0.41,-1.43 a 3.74,3.74 0 0 0 0.17,-1.18 4,4 0 0 0 -0.57,-2.09 C 712.2,415.82 698.52,412.4 688.69,412.4 a 51.65,51.65 0 0 0 -17.48,3.28 c -4.44,-6 -15.69,-18.35 -32.75,-18.35 a 40.46,40.46 0 0 0 -18.2,4.6"
       id="path7580"
       inkscape:connector-curvature="0"
       style="fill:#ffffff" />
    <path
       class="cls-2"
       d="m 517.65,476.69 0.14,2.19 a 4.15,4.15 0 0 0 5.21,3.76 5.33,5.33 0 0 0 0.71,-0.22 5.41,5.41 0 0 0 2.1,-1.55 c 2.06,-1.49 8.71,-4.21 18.52,-4.21 9.43,0 23.77,2.52 38.39,14.53 l 0.34,0.35 a 5.78,5.78 0 0 0 3.75,1.41 h 0.36 a 5.69,5.69 0 0 0 3.81,-1.83 l 0.32,-0.37 c 16.19,-17.13 33.62,-19.67 42.57,-19.67 6.38,0 10.9,1.31 12.66,2.31 a 6.46,6.46 0 0 0 2.53,1.31 4.86,4.86 0 0 0 2.8,-0.13 4.14,4.14 0 0 0 2.75,-4.17 l -0.11,-1.9 a 4.11,4.11 0 0 0 -1.46,-2.89 c -9.66,-8.13 -20.09,-12.22 -31.06,-12.22 -17.08,0 -30.71,10.08 -36.35,15 -5.16,-3.52 -17.7,-10.76 -32.4,-10.76 -12.92,0 -24.5,5.37 -34.45,15.92 a 4.3,4.3 0 0 0 -1.13,3.11"
       id="path7582"
       inkscape:connector-curvature="0"
       style="fill:#ffffff" />
    <path
       class="cls-2"
       d="M 271.91,515.67 A 52.65,52.65 0 0 1 324.56,463 c 1.14,0 2.25,0.1 3.37,0.17 a 71.19,71.19 0 1 1 135,36.44 79.58,79.58 0 0 1 -17.28,157.29 c -3.21,0 -106.23,-0.62 -106.23,-0.62 v 0 a 56.29,56.29 0 0 1 -41,-94.95 52.59,52.59 0 0 1 -26.51,-45.66 z"
       id="path7584"
       inkscape:connector-curvature="0"
       style="fill:#ffffff" />
  </g>
</svg>
