<?xml version="1.0" encoding="UTF-8" standalone="no"?>
<svg
   xmlns:dc="http://purl.org/dc/elements/1.1/"
   xmlns:cc="http://creativecommons.org/ns#"
   xmlns:rdf="http://www.w3.org/1999/02/22-rdf-syntax-ns#"
   xmlns:svg="http://www.w3.org/2000/svg"
   xmlns="http://www.w3.org/2000/svg"
   xmlns:sodipodi="http://sodipodi.sourceforge.net/DTD/sodipodi-0.dtd"
   xmlns:inkscape="http://www.inkscape.org/namespaces/inkscape"
   id="Layer_1"
   data-name="Layer 1"
   viewBox="0 0 1000 1000"
   version="1.1"
   sodipodi:docname="legend_goal_5.svg"
   inkscape:version="0.92.2 5c3e80d, 2017-08-06">
  <metadata
     id="metadata4453">
    <rdf:RDF>
      <cc:Work
         rdf:about="">
        <dc:format>image/svg+xml</dc:format>
        <dc:type
           rdf:resource="http://purl.org/dc/dcmitype/StillImage" />
        <dc:title>Artboard 1</dc:title>
      </cc:Work>
    </rdf:RDF>
  </metadata>
  <sodipodi:namedview
     pagecolor="#ffffff"
     bordercolor="#666666"
     borderopacity="1"
     objecttolerance="10"
     gridtolerance="10"
     guidetolerance="10"
     inkscape:pageopacity="0"
     inkscape:pageshadow="2"
     inkscape:window-width="789"
     inkscape:window-height="535"
     id="namedview4451"
     showgrid="false"
     inkscape:zoom="0.236"
     inkscape:cx="500"
     inkscape:cy="500"
     inkscape:window-x="0"
     inkscape:window-y="0"
     inkscape:window-maximized="0"
     inkscape:current-layer="Layer_1" />
  <defs
     id="defs4406">
    <style
       id="style4404">
      .cls-1 {
        fill: #ff3a21;
      }

      .cls-2 {
        fill: #fff;
      }
    </style>
  </defs>
  <title
     id="title4408">Artboard 1</title>
  <rect
     class="cls-1"
     width="999.95"
     height="1000"
     id="rect4410" />
  <g
     id="g4448"
     transform="matrix(1.382168,0,0,1.382168,-221.42624,-386.13015)">
    <path
       class="cls-2"
       d="M 728.35,378.38 H 604.07 a 1.6,1.6 0 0 0 -1.58,1.59 v 41.29 a 1.59,1.59 0 0 0 1.58,1.59 h 49.48 l -54.95,55 A 161.9,161.9 0 0 0 498.25,443.09 c -89.75,0 -162.78,73 -162.78,162.78 0,82.64 61.91,151 141.77,161.37 v 47.59 h -49 a 1.57,1.57 0 0 0 -1.6,1.57 v 44.27 a 1.57,1.57 0 0 0 1.6,1.58 h 49 V 909 a 1.57,1.57 0 0 0 1.58,1.58 h 44.24 a 1.59,1.59 0 0 0 1.6,-1.58 v -46.79 h 49 a 1.57,1.57 0 0 0 1.57,-1.58 v -44.27 a 1.57,1.57 0 0 0 -1.57,-1.57 h -49 V 766.43 C 601.89,753.76 661,686.59 661,605.83 A 161.84,161.84 0 0 0 631.27,512.21 L 685.45,458 v 46.22 a 1.6,1.6 0 0 0 1.61,1.58 h 41.29 a 1.6,1.6 0 0 0 1.61,-1.58 V 380 a 1.6,1.6 0 0 0 -1.61,-1.59 M 498.25,725.65 A 119.82,119.82 0 1 1 618.07,605.83 119.94,119.94 0 0 1 498.25,725.65"
       id="path4442"
       inkscape:connector-curvature="0"
       style="fill:#ffffff" />
    <path
       class="cls-2"
       d="M 572.65,556.65 H 427.32 a 1.52,1.52 0 0 0 -1.58,1.42 v 35.18 a 1.5,1.5 0 0 0 1.58,1.44 h 145.33 a 1.51,1.51 0 0 0 1.61,-1.44 v -35.18 a 1.53,1.53 0 0 0 -1.61,-1.42"
       id="path4444"
       inkscape:connector-curvature="0"
       style="fill:#ffffff" />
    <path
       class="cls-2"
       d="M 572.65,619.47 H 427.32 a 1.54,1.54 0 0 0 -1.58,1.47 v 35.18 a 1.5,1.5 0 0 0 1.58,1.42 h 145.33 a 1.51,1.51 0 0 0 1.61,-1.42 v -35.18 a 1.55,1.55 0 0 0 -1.61,-1.47"
       id="path4446"
       inkscape:connector-curvature="0"
       style="fill:#ffffff" />
  </g>
</svg>
