<?xml version="1.0" encoding="UTF-8" standalone="no"?>
<svg
   xmlns:dc="http://purl.org/dc/elements/1.1/"
   xmlns:cc="http://creativecommons.org/ns#"
   xmlns:rdf="http://www.w3.org/1999/02/22-rdf-syntax-ns#"
   xmlns:svg="http://www.w3.org/2000/svg"
   xmlns="http://www.w3.org/2000/svg"
   xmlns:sodipodi="http://sodipodi.sourceforge.net/DTD/sodipodi-0.dtd"
   xmlns:inkscape="http://www.inkscape.org/namespaces/inkscape"
   id="Layer_1"
   data-name="Layer 1"
   viewBox="0 0 1000 1000"
   version="1.1"
   sodipodi:docname="legend_goal_17.svg"
   inkscape:version="0.92.2 5c3e80d, 2017-08-06">
  <metadata
     id="metadata8397">
    <rdf:RDF>
      <cc:Work
         rdf:about="">
        <dc:format>image/svg+xml</dc:format>
        <dc:type
           rdf:resource="http://purl.org/dc/dcmitype/StillImage" />
        <dc:title>Artboard 1</dc:title>
      </cc:Work>
    </rdf:RDF>
  </metadata>
  <sodipodi:namedview
     pagecolor="#ffffff"
     bordercolor="#666666"
     borderopacity="1"
     objecttolerance="10"
     gridtolerance="10"
     guidetolerance="10"
     inkscape:pageopacity="0"
     inkscape:pageshadow="2"
     inkscape:window-width="690"
     inkscape:window-height="480"
     id="namedview8395"
     showgrid="false"
     inkscape:zoom="0.236"
     inkscape:cx="402.54237"
     inkscape:cy="500"
     inkscape:window-x="0"
     inkscape:window-y="0"
     inkscape:window-maximized="0"
     inkscape:current-layer="Layer_1" />
  <defs
     id="defs8336">
    <style
       id="style8334">
      .cls-1 {
        fill: #19486a;
      }

      .cls-2 {
        fill: #fff;
      }
    </style>
  </defs>
  <title
     id="title8338">Artboard 1</title>
  <rect
     class="cls-1"
     width="1000"
     height="1000"
     id="rect8340" />
  <path
     class="cls-2"
     d="m 864.78543,461.79273 c 0,-103.19375 -82.09362,-187.49142 -184.36167,-191.22361 a 191.35586,191.35586 0 0 0 -360.89159,0 c -102.25336,3.73219 -184.31759,88.04456 -184.31759,191.22361 a 191.0179,191.0179 0 0 0 73.85046,150.84537 191.60565,191.60565 0 0 0 -7.55255,53.13237 c 0,105.47127 85.8552,191.32647 191.39993,191.32647 a 190.23914,190.23914 0 0 0 107.99858,-33.5016 190.31261,190.31261 0 0 0 106.17658,32.23795 c 105.53004,0 191.38525,-85.85521 191.38525,-191.34118 a 190.90036,190.90036 0 0 0 -7.244,-52.05972 191.13545,191.13545 0 0 0 73.5566,-150.62496 m -211.9711,-127.5265 c 0,76.61288 -56.70293,140.03082 -130.3036,150.99231 a 150.96292,150.96292 0 0 1 -1.99834,-23.5099 152.90249,152.90249 0 0 1 130.3036,-150.9923 152.47637,152.47637 0 0 1 1.99834,23.50989 M 500.6906,773.96007 a 152.41759,152.41759 0 0 1 -1.46937,-217.71632 152.37352,152.37352 0 0 1 1.46937,217.71632 M 349.13993,310.78574 c 73.60067,10.94679 130.28891,74.37943 130.28891,151.00699 a 150.96292,150.96292 0 0 1 -2.01304,23.5099 C 403.84452,474.31175 347.18567,410.89381 347.18567,334.28093 a 152.81433,152.81433 0 0 1 1.99834,-23.50989 m 113.92014,219.37672 a 152.27066,152.27066 0 0 1 -206.71075,67.2383 152.27066,152.27066 0 0 1 206.71075,-67.2383 m 73.27742,-1.02857 A 152.32943,152.32943 0 0 1 744.10618,597.15096 152.32943,152.32943 0 0 1 536.38157,529.11919 M 500,181.45192 A 153.00534,153.00534 0 0 1 640.10428,273.34623 192.06116,192.06116 0 0 0 500,380.8893 191.91422,191.91422 0 0 0 359.89571,273.34623 153.02004,153.02004 0 0 1 500,181.45192 M 173.80018,461.79273 A 153.06411,153.06411 0 0 1 310.26044,309.83064 190.38607,190.38607 0 0 0 371.13637,475.66358 191.7379,191.7379 0 0 0 224.39055,575.09574 152.34413,152.34413 0 0 1 173.80018,461.79273 m 66.25384,203.97774 a 151.9474,151.9474 0 0 1 3.33546,-31.67958 191.0179,191.0179 0 0 0 175.61894,-4.80484 190.48893,190.48893 0 0 0 50.79606,168.28678 152.56453,152.56453 0 0 1 -229.75045,-131.80236 m 519.89196,-1.27836 a 152.59392,152.59392 0 0 1 -228.22232,132.75746 190.53301,190.53301 0 0 0 48.98875,-168.11046 190.90036,190.90036 0 0 0 176.1332,4.80484 151.91801,151.91801 0 0 1 3.10037,30.54816 M 630.02441,474.53216 a 190.87097,190.87097 0 0 0 61.34614,-140.25123 194.85296,194.85296 0 0 0 -1.6016,-24.45029 152.56453,152.56453 0 0 1 86.25192,264.86837 191.75259,191.75259 0 0 0 -145.99646,-100.16685"
     id="path8392"
     inkscape:connector-curvature="0"
     style="fill:#ffffff;stroke-width:1.46936846" />
</svg>
