<?xml version="1.0" encoding="UTF-8" standalone="no"?>
<svg
   xmlns:dc="http://purl.org/dc/elements/1.1/"
   xmlns:cc="http://creativecommons.org/ns#"
   xmlns:rdf="http://www.w3.org/1999/02/22-rdf-syntax-ns#"
   xmlns:svg="http://www.w3.org/2000/svg"
   xmlns="http://www.w3.org/2000/svg"
   xmlns:sodipodi="http://sodipodi.sourceforge.net/DTD/sodipodi-0.dtd"
   xmlns:inkscape="http://www.inkscape.org/namespaces/inkscape"
   id="Layer_1"
   data-name="Layer 1"
   viewBox="0 0 1000 1000"
   version="1.1"
   sodipodi:docname="legend_goal_16.svg"
   inkscape:version="0.92.2 5c3e80d, 2017-08-06">
  <metadata
     id="metadata8034">
    <rdf:RDF>
      <cc:Work
         rdf:about="">
        <dc:format>image/svg+xml</dc:format>
        <dc:type
           rdf:resource="http://purl.org/dc/dcmitype/StillImage" />
        <dc:title>Artboard 1</dc:title>
      </cc:Work>
    </rdf:RDF>
  </metadata>
  <sodipodi:namedview
     pagecolor="#ffffff"
     bordercolor="#666666"
     borderopacity="1"
     objecttolerance="10"
     gridtolerance="10"
     guidetolerance="10"
     inkscape:pageopacity="0"
     inkscape:pageshadow="2"
     inkscape:window-width="690"
     inkscape:window-height="480"
     id="namedview8032"
     showgrid="false"
     inkscape:zoom="0.236"
     inkscape:cx="402.54237"
     inkscape:cy="500"
     inkscape:window-x="0"
     inkscape:window-y="0"
     inkscape:window-maximized="0"
     inkscape:current-layer="Layer_1" />
  <defs
     id="defs7927">
    <style
       id="style7925">
      .cls-1 {
        fill: #00689d;
      }

      .cls-2 {
        fill: #fff;
      }
    </style>
  </defs>
  <title
     id="title7929">Artboard 1</title>
  <rect
     class="cls-1"
     x="0.3"
     y="0.15"
     width="999.81"
     height="999.85"
     id="rect7931" />
  <g
     id="g7957"
     transform="matrix(1.8118757,0,0,1.8118757,-405.73138,-748.22779)">
    <path
       class="cls-2"
       d="m 646.14,491 c 0,0 -8.41,11.17 -6,22.06 2.41,10.89 14.88,17.36 14.88,17.36 0,0 8.41,-11.17 6,-22.05 C 658.61,497.49 646.14,491 646.14,491"
       id="path7937"
       inkscape:connector-curvature="0"
       style="fill:#ffffff" />
    <path
       class="cls-2"
       d="m 632.43,554.84 c 0,0 8.41,-11.18 6,-22.06 -2.41,-10.88 -14.87,-17.36 -14.87,-17.36 0,0 -8.42,11.17 -6,22.06 2.42,10.89 14.88,17.36 14.88,17.36"
       id="path7939"
       inkscape:connector-curvature="0"
       style="fill:#ffffff" />
    <path
       class="cls-2"
       d="m 667,542.88 c 0,0 8.88,9 19,8.06 10.12,-0.94 17.61,-11.31 17.61,-11.31 0,0 -8.87,-9 -19,-8.07 -10.13,0.93 -17.61,11.32 -17.61,11.32"
       id="path7941"
       inkscape:connector-curvature="0"
       style="fill:#ffffff" />
    <path
       class="cls-2"
       d="m 681.56,495 c -8.23,8.35 -7.07,23.13 -7.07,23.13 0,0 14.51,1.26 22.76,-7.08 8.25,-8.34 7.07,-23.13 7.07,-23.13 0,0 -14.52,-1.26 -22.76,7.08"
       id="path7943"
       inkscape:connector-curvature="0"
       style="fill:#ffffff" />
    <path
       class="cls-2"
       d="m 663.4,576.09 c 10.08,1.2 19.56,-7.46 19.56,-7.46 0,0 -6.87,-10.63 -16.96,-11.78 -10.09,-1.15 -19.57,7.47 -19.57,7.47 0,0 6.87,10.58 16.95,11.77"
       id="path7945"
       inkscape:connector-curvature="0"
       style="fill:#ffffff" />
    <path
       class="cls-2"
       d="m 672.4,751.23 h -75.35 a 10.66,10.66 0 1 0 0,21.32 h 75.35 a 10.66,10.66 0 0 0 0,-21.32"
       id="path7947"
       inkscape:connector-curvature="0"
       style="fill:#ffffff" />
    <path
       class="cls-2"
       d="m 672.4,868.74 h -75.35 a 10.66,10.66 0 1 0 0,21.32 h 75.35 a 10.66,10.66 0 0 0 0,-21.32"
       id="path7949"
       inkscape:connector-curvature="0"
       style="fill:#ffffff" />
    <path
       class="cls-2"
       d="m 333.51,725.35 a 49.66,49.66 0 0 0 -5.23,-1.34 c 0,0 1.93,0.6 5.23,1.34"
       id="path7951"
       inkscape:connector-curvature="0"
       style="fill:#ffffff" />
    <path
       class="cls-2"
       d="M 669.63,780 H 599.8 a 6.07,6.07 0 0 0 -6.07,6.06 v 21.15 l -45.58,5 -66.59,-1.52 V 770 a 183,183 0 0 0 26.49,-5.38 c 64.11,-18.08 78.09,-71.08 76.69,-107.75 -1.39,-37.35 10.56,-51.85 27.73,-58.3 a 77.47,77.47 0 0 1 14.23,-3.77 c 0.19,9.17 2,19.84 6.15,32.54 1.53,-0.08 3,-0.21 4.55,-0.37 -4.33,-13 -6.18,-23.69 -6.28,-32.81 a 79.89,79.89 0 0 1 15.2,-0.46 96.54,96.54 0 0 1 -14.47,-10.3 c 2.88,-17.68 13.42,-28.54 24.27,-39.65 6,-6.11 12.13,-12.42 17,-19.94 l -3.78,-2.44 c -4.6,7.14 -10.63,13.29 -16.44,19.24 -10.58,10.83 -21.27,21.89 -24.89,39.45 A 145.4,145.4 0 0 1 617,569 c -15.81,-17.72 -36.16,-4.71 -65.17,22.31 -29.01,27.02 -65.54,27.93 -101.2,-8.55 -47,-48.16 -88.08,-47.88 -116.22,-45.15 19.25,8.2 26,26.19 35.73,71.91 10.21,48 36,69.68 71.19,72.67 -19.59,6.93 -20.56,18 -46.81,36.12 -20.51,14.14 -49.35,9.67 -61,7 21.46,6.7 46.89,29.21 69.64,37 a 168.17,168.17 0 0 0 41.51,8.51 v 38.94 l -119.3,-2.72 v 27.16 l 222.79,-5.1 45.58,5 v 21.13 a 6.09,6.09 0 0 0 6.07,6.08 h 69.83 a 6.1,6.1 0 0 0 6.08,-6.08 V 786.06 A 6.08,6.08 0 0 0 669.63,780 Z m -214,-8.52 c 5,0.08 9.95,-0.07 14.94,-0.41 v 39.37 l -14.94,-0.34 z"
       id="path7953"
       inkscape:connector-curvature="0"
       style="fill:#ffffff" />
    <path
       class="cls-2"
       d="m 318.84,829.8 c 0,5.73 -4,10.37 -8.92,10.37 h -5.37 c -4.92,0 -8.93,-4.64 -8.93,-10.37 V 811 c 0,-5.73 4,-10.37 8.93,-10.37 h 5.37 c 4.92,0 8.92,4.64 8.92,10.37 z"
       id="path7955"
       inkscape:connector-curvature="0"
       style="fill:#ffffff" />
  </g>
</svg>
