<?xml version="1.0" encoding="UTF-8" standalone="no"?>
<svg
   xmlns:dc="http://purl.org/dc/elements/1.1/"
   xmlns:cc="http://creativecommons.org/ns#"
   xmlns:rdf="http://www.w3.org/1999/02/22-rdf-syntax-ns#"
   xmlns:svg="http://www.w3.org/2000/svg"
   xmlns="http://www.w3.org/2000/svg"
   xmlns:sodipodi="http://sodipodi.sourceforge.net/DTD/sodipodi-0.dtd"
   xmlns:inkscape="http://www.inkscape.org/namespaces/inkscape"
   id="Layer_1"
   data-name="Layer 1"
   viewBox="0 0 1000 1000"
   version="1.1"
   sodipodi:docname="legend_goal_7.svg"
   inkscape:version="0.92.2 5c3e80d, 2017-08-06">
  <metadata
     id="metadata5076">
    <rdf:RDF>
      <cc:Work
         rdf:about="">
        <dc:format>image/svg+xml</dc:format>
        <dc:type
           rdf:resource="http://purl.org/dc/dcmitype/StillImage" />
        <dc:title>Artboard 1</dc:title>
      </cc:Work>
    </rdf:RDF>
  </metadata>
  <sodipodi:namedview
     pagecolor="#ffffff"
     bordercolor="#666666"
     borderopacity="1"
     objecttolerance="10"
     gridtolerance="10"
     guidetolerance="10"
     inkscape:pageopacity="0"
     inkscape:pageshadow="2"
     inkscape:window-width="1370"
     inkscape:window-height="730"
     id="namedview5074"
     showgrid="false"
     inkscape:zoom="0.236"
     inkscape:cx="-80.508475"
     inkscape:cy="500"
     inkscape:window-x="0"
     inkscape:window-y="0"
     inkscape:window-maximized="0"
     inkscape:current-layer="Layer_1" />
  <defs
     id="defs5026">
    <style
       id="style5024">
      .cls-1 {
        fill: #fcc30b;
      }

      .cls-2 {
        fill: #fff;
      }
    </style>
  </defs>
  <title
     id="title5028">Artboard 1</title>
  <rect
     id="_Path_"
     data-name="&lt;Path&gt;"
     class="cls-1"
     y="-0.02"
     width="1000"
     height="1000.03" />
  <g
     id="g5045"
     transform="matrix(1.3737831,0,0,1.3737831,-186.89155,-365.20671)">
    <path
       id="_Compound_Path_"
       data-name="&lt;Compound Path&gt;"
       class="cls-2"
       d="M 500,484.49 A 146.58,146.58 0 1 0 646.52,631.06 146.56,146.56 0 0 0 500,484.49 m -10.85,57.9 c 0,-4.87 4.89,-10.25 10.91,-10.25 6.02,0 10.85,5.38 10.85,10.25 v 50.33 c 0,4.85 -4.85,10.17 -10.85,10.17 -6,0 -10.91,-5.32 -10.91,-10.17 z M 500,706.16 a 76.24,76.24 0 0 1 -22.65,-149 v 28.39 a 49.89,49.89 0 1 0 45.18,-0.07 V 557.09 A 76.24,76.24 0 0 1 500,706.16"
       inkscape:connector-curvature="0"
       style="fill:#ffffff" />
    <path
       id="_Path_3"
       data-name="&lt;Path&gt;"
       class="cls-2"
       d="m 331.73,629.78 c 0,-6.65 -5.89,-12 -11.26,-12 h -64.19 c -5.41,0 -11.35,5.38 -11.35,12 0,6.62 5.94,12.07 11.35,12.07 h 64.19 c 5.37,0 11.26,-5.41 11.26,-12.07"
       inkscape:connector-curvature="0"
       style="fill:#ffffff" />
    <path
       id="_Path_4"
       data-name="&lt;Path&gt;"
       class="cls-2"
       d="m 755.07,629.78 c 0,-6.65 -5.89,-12 -11.26,-12 h -64.18 c -5.41,0 -11.35,5.38 -11.35,12 0,6.62 5.94,12.07 11.35,12.07 h 64.18 c 5.37,0 11.26,-5.41 11.26,-12.07"
       inkscape:connector-curvature="0"
       style="fill:#ffffff" />
    <path
       id="_Path_5"
       data-name="&lt;Path&gt;"
       class="cls-2"
       d="m 500,461.53 c 6.63,0 12,-5.89 12,-11.26 v -64.19 c 0,-5.41 -5.39,-11.35 -12,-11.35 -6.61,0 -12.09,5.94 -12.09,11.35 v 64.19 c 0,5.37 5.43,11.26 12.09,11.26"
       inkscape:connector-curvature="0"
       style="fill:#ffffff" />
    <path
       id="_Path_6"
       data-name="&lt;Path&gt;"
       class="cls-2"
       d="m 500,884.86 c 6.63,0 12,-5.89 12,-11.26 v -64.18 c 0,-5.4 -5.39,-11.35 -12,-11.35 -6.61,0 -12.09,5.95 -12.09,11.35 v 64.18 c 0,5.37 5.43,11.26 12.09,11.26"
       inkscape:connector-curvature="0"
       style="fill:#ffffff" />
    <path
       id="_Path_7"
       data-name="&lt;Path&gt;"
       class="cls-2"
       d="m 354,546.19 c 3.31,-5.77 0.88,-13.36 -3.8,-16 l -55.7,-31.88 c -4.7,-2.69 -12.52,-1 -15.83,4.8 -3.31,5.8 -0.83,13.43 3.86,16.12 l 55.71,31.88 c 4.66,2.67 12.46,0.9 15.76,-4.89"
       inkscape:connector-curvature="0"
       style="fill:#ffffff" />
    <path
       id="_Path_8"
       data-name="&lt;Path&gt;"
       class="cls-2"
       d="m 721.39,756.47 c 3.29,-5.75 0.86,-13.36 -3.8,-16 l -55.7,-31.88 c -4.7,-2.68 -12.53,-1 -15.83,4.81 -3.3,5.81 -0.84,13.43 3.85,16.11 l 55.71,31.88 c 4.66,2.67 12.46,0.9 15.77,-4.89"
       inkscape:connector-curvature="0"
       style="fill:#ffffff" />
    <path
       id="_Path_9"
       data-name="&lt;Path&gt;"
       class="cls-2"
       d="m 583.61,483.77 c 5.76,3.29 13.35,0.86 16,-3.8 l 31.87,-55.71 c 2.7,-4.7 1,-12.53 -4.79,-15.83 -5.79,-3.3 -13.44,-0.84 -16.12,3.86 L 578.72,468 c -2.67,4.67 -0.9,12.47 4.89,15.78"
       inkscape:connector-curvature="0"
       style="fill:#ffffff" />
    <path
       id="_Path_10"
       data-name="&lt;Path&gt;"
       class="cls-2"
       d="m 373.33,851.19 c 5.76,3.29 13.35,0.86 16,-3.81 l 31.87,-55.7 c 2.69,-4.69 1,-12.53 -4.8,-15.83 -5.8,-3.3 -13.4,-0.85 -16.08,3.86 l -31.88,55.7 c -2.67,4.66 -0.9,12.47 4.89,15.78"
       inkscape:connector-curvature="0"
       style="fill:#ffffff" />
    <path
       id="_Path_11"
       data-name="&lt;Path&gt;"
       class="cls-2"
       d="m 416.14,483.91 c 5.75,-3.31 7.49,-11.1 4.81,-15.76 l -32,-55.64 c -2.7,-4.69 -10.32,-7.15 -16.08,-3.84 -5.76,3.31 -7.51,11.17 -4.8,15.86 l 32,55.63 c 2.69,4.66 10.3,7.07 16.09,3.75"
       inkscape:connector-curvature="0"
       style="fill:#ffffff" />
    <path
       id="_Path_12"
       data-name="&lt;Path&gt;"
       class="cls-2"
       d="m 627.17,850.9 c 5.76,-3.31 7.49,-11.1 4.82,-15.75 l -32,-55.64 c -2.7,-4.7 -10.32,-7.16 -16.09,-3.85 -5.77,3.31 -7.51,11.17 -4.79,15.87 l 32,55.63 c 2.68,4.66 10.3,7.06 16.08,3.74"
       inkscape:connector-curvature="0"
       style="fill:#ffffff" />
    <path
       id="_Path_13"
       data-name="&lt;Path&gt;"
       class="cls-2"
       d="m 645.89,545.93 c 3.31,5.76 11.09,7.49 15.75,4.82 l 55.63,-32 c 4.7,-2.7 7.18,-10.33 3.86,-16.09 -3.32,-5.76 -11.16,-7.5 -15.86,-4.8 l -55.63,32 c -4.67,2.68 -7.07,10.31 -3.75,16.08"
       inkscape:connector-curvature="0"
       style="fill:#ffffff" />
    <path
       id="_Path_14"
       data-name="&lt;Path&gt;"
       class="cls-2"
       d="m 278.9,757 c 3.31,5.76 11.09,7.49 15.76,4.81 l 55.63,-32 c 4.69,-2.7 7.17,-10.33 3.84,-16.09 -3.33,-5.76 -11.16,-7.5 -15.85,-4.81 l -55.63,32 c -4.67,2.67 -7.07,10.31 -3.75,16.08"
       inkscape:connector-curvature="0"
       style="fill:#ffffff" />
  </g>
</svg>
