<?xml version="1.0" encoding="UTF-8" standalone="no"?>
<svg
   xmlns:dc="http://purl.org/dc/elements/1.1/"
   xmlns:cc="http://creativecommons.org/ns#"
   xmlns:rdf="http://www.w3.org/1999/02/22-rdf-syntax-ns#"
   xmlns:svg="http://www.w3.org/2000/svg"
   xmlns="http://www.w3.org/2000/svg"
   xmlns:sodipodi="http://sodipodi.sourceforge.net/DTD/sodipodi-0.dtd"
   xmlns:inkscape="http://www.inkscape.org/namespaces/inkscape"
   id="Layer_1"
   data-name="Layer 1"
   viewBox="0 0 1000 1000"
   version="1.1"
   sodipodi:docname="legend_goal_9.svg"
   inkscape:version="0.92.2 5c3e80d, 2017-08-06">
  <metadata
     id="metadata5718">
    <rdf:RDF>
      <cc:Work
         rdf:about="">
        <dc:format>image/svg+xml</dc:format>
        <dc:type
           rdf:resource="http://purl.org/dc/dcmitype/StillImage" />
        <dc:title>Artboard 1</dc:title>
      </cc:Work>
    </rdf:RDF>
  </metadata>
  <sodipodi:namedview
     pagecolor="#ffffff"
     bordercolor="#666666"
     borderopacity="1"
     objecttolerance="10"
     gridtolerance="10"
     guidetolerance="10"
     inkscape:pageopacity="0"
     inkscape:pageshadow="2"
     inkscape:window-width="690"
     inkscape:window-height="480"
     id="namedview5716"
     showgrid="false"
     inkscape:zoom="0.236"
     inkscape:cx="402.54237"
     inkscape:cy="500"
     inkscape:window-x="0"
     inkscape:window-y="0"
     inkscape:window-maximized="0"
     inkscape:current-layer="Layer_1" />
  <defs
     id="defs5670">
    <style
       id="style5668">
      .cls-1 {
        fill: #fd6925;
      }

      .cls-2 {
        fill: #fff;
      }
    </style>
  </defs>
  <title
     id="title5672">Artboard 1</title>
  <rect
     id="_Path_"
     data-name="&lt;Path&gt;"
     class="cls-1"
     y="-0.01"
     width="1000"
     height="1000.02" />
  <path
     id="_Compound_Path_2"
     data-name="&lt;Compound Path&gt;"
     class="cls-2"
     d="M 851.00862,539.94129 684.01684,443.56422 V 250.76794 a 11.378141,11.378141 0 0 0 -5.61883,-9.83296 L 505.7593,141.20066 a 11.378141,11.378141 0 0 0 -11.39219,0 l -172.76513,99.70623 a 11.378141,11.378141 0 0 0 -5.61883,9.83296 v 192.82437 l -166.99178,96.37707 a 11.392188,11.392188 0 0 0 -5.70312,9.83296 V 749.2429 a 11.406235,11.406235 0 0 0 5.70312,9.83296 l 172.65275,99.73432 a 11.448376,11.448376 0 0 0 11.39219,0 L 500,762.34883 666.9356,858.7259 a 11.448376,11.448376 0 0 0 11.39218,0 l 172.68085,-99.73433 a 11.406235,11.406235 0 0 0 5.70312,-9.83296 V 549.68997 a 11.364094,11.364094 0 0 0 -5.70313,-9.74868 z M 488.59376,729.4646 350.11757,649.49453 488.60781,569.5385 Z M 649.85433,450.1523 511.37814,530.06619 V 370.18223 Z M 488.60781,530.08023 350.13162,450.13826 488.60781,370.18223 Z m 34.17656,19.66593 149.85433,-86.44578 149.89648,86.50196 -149.89648,86.54411 z M 661.24651,430.34591 522.78437,350.37584 661.24651,270.43386 Z M 477.22967,350.37584 338.73943,430.34591 V 270.5041 Z M 315.98315,829.12868 166.10072,742.61267 V 569.5385 l 149.88243,86.6003 z m 22.77033,0 v -159.898 l 138.49023,79.97007 z M 833.95546,742.61267 684.01684,829.12868 V 656.1388 l 149.91052,-86.54411 z"
     inkscape:connector-curvature="0"
     style="fill:#ffffff;stroke-width:1.40470874" />
</svg>
