<?xml version="1.0" encoding="UTF-8" standalone="no"?>
<svg
   xmlns:dc="http://purl.org/dc/elements/1.1/"
   xmlns:cc="http://creativecommons.org/ns#"
   xmlns:rdf="http://www.w3.org/1999/02/22-rdf-syntax-ns#"
   xmlns:svg="http://www.w3.org/2000/svg"
   xmlns="http://www.w3.org/2000/svg"
   xmlns:sodipodi="http://sodipodi.sourceforge.net/DTD/sodipodi-0.dtd"
   xmlns:inkscape="http://www.inkscape.org/namespaces/inkscape"
   id="Layer_1"
   data-name="Layer 1"
   viewBox="0 0 1000 1000"
   version="1.1"
   sodipodi:docname="legend_goal_11.svg"
   inkscape:version="0.92.2 5c3e80d, 2017-08-06">
  <metadata
     id="metadata6461">
    <rdf:RDF>
      <cc:Work
         rdf:about="">
        <dc:format>image/svg+xml</dc:format>
        <dc:type
           rdf:resource="http://purl.org/dc/dcmitype/StillImage" />
        <dc:title>Artboard 1</dc:title>
      </cc:Work>
    </rdf:RDF>
  </metadata>
  <sodipodi:namedview
     pagecolor="#ffffff"
     bordercolor="#666666"
     borderopacity="1"
     objecttolerance="10"
     gridtolerance="10"
     guidetolerance="10"
     inkscape:pageopacity="0"
     inkscape:pageshadow="2"
     inkscape:window-width="690"
     inkscape:window-height="480"
     id="namedview6459"
     showgrid="false"
     inkscape:zoom="0.236"
     inkscape:cx="572.0339"
     inkscape:cy="500"
     inkscape:window-x="0"
     inkscape:window-y="0"
     inkscape:window-maximized="0"
     inkscape:current-layer="Layer_1" />
  <defs
     id="defs6370">
    <style
       id="style6368">
      .cls-1 {
        fill: #fd9d24;
      }

      .cls-2 {
        fill: #fff;
      }
    </style>
  </defs>
  <title
     id="title6372">Artboard 1</title>
  <rect
     class="cls-1"
     width="1000"
     height="1000"
     id="rect6374" />
  <g
     id="g6456"
     transform="matrix(1.1785038,0,0,1.1785038,-89.251892,-263.8004)">
    <g
       id="g6446">
      <path
         class="cls-2"
         d="m 165,761.31 h 150.38 a 3.67,3.67 0 0 0 2.72,-6.16 l -0.21,-0.22 -74.84,-96.82 -0.73,-0.81 a 3.67,3.67 0 0 0 -2.72,-1.2 3.75,3.75 0 0 0 -2.42,0.95 l -0.45,0.52 -0.71,0.79 -73,95.81 -1.12,1.37 a 3.64,3.64 0 0 0 -0.63,2.06 3.71,3.71 0 0 0 3.73,3.71 z"
         id="path6442"
         inkscape:connector-curvature="0"
         style="fill:#ffffff" />
      <path
         class="cls-2"
         d="M 314.92,775 H 164.2 a 3.69,3.69 0 0 0 -3.69,3.69 v 117.9 a 3.7,3.7 0 0 0 3.69,3.71 h 48.51 v -74.21 a 3.68,3.68 0 0 1 3.69,-3.69 h 45 a 3.68,3.68 0 0 1 3.69,3.69 v 74.21 h 49.8 a 3.7,3.7 0 0 0 3.69,-3.71 V 778.65 A 3.69,3.69 0 0 0 314.92,775 Z"
         id="path6444"
         inkscape:connector-curvature="0"
         style="fill:#ffffff" />
    </g>
    <path
       class="cls-2"
       d="M 835.83,744.08 H 686.66 a 3.59,3.59 0 0 0 -3.65,3.55 v 150.63 a 3.6,3.6 0 0 0 3.65,3.54 h 149.17 a 3.6,3.6 0 0 0 3.66,-3.54 V 747.63 a 3.59,3.59 0 0 0 -3.66,-3.55 m -81.62,98.34 a 3.6,3.6 0 0 1 -3.64,3.56 H 706 a 3.61,3.61 0 0 1 -3.66,-3.56 v -27.08 a 3.6,3.6 0 0 1 3.66,-3.56 h 44.57 a 3.59,3.59 0 0 1 3.64,3.56 z m 0,-50.06 a 3.6,3.6 0 0 1 -3.64,3.56 H 706 a 3.61,3.61 0 0 1 -3.66,-3.56 v -27.1 a 3.61,3.61 0 0 1 3.66,-3.54 h 44.57 a 3.59,3.59 0 0 1 3.64,3.54 z m 68.12,50.06 a 3.6,3.6 0 0 1 -3.66,3.56 h -44.55 a 3.6,3.6 0 0 1 -3.66,-3.56 v -27.08 a 3.6,3.6 0 0 1 3.66,-3.56 h 44.55 a 3.6,3.6 0 0 1 3.66,3.56 z m 0,-50.06 a 3.6,3.6 0 0 1 -3.66,3.56 h -44.55 a 3.6,3.6 0 0 1 -3.66,-3.56 v -27.1 a 3.6,3.6 0 0 1 3.66,-3.54 h 44.55 a 3.6,3.6 0 0 1 3.66,3.54 z"
       id="path6448"
       inkscape:connector-curvature="0"
       style="fill:#ffffff" />
    <path
       class="cls-2"
       d="m 489.06,394.44 h -146 a 3.57,3.57 0 0 0 -3.56,3.58 v 498.9 a 3.58,3.58 0 0 0 3.56,3.57 h 146 a 3.6,3.6 0 0 0 3.59,-3.57 V 398 a 3.59,3.59 0 0 0 -3.59,-3.58 m -86.84,449.23 a 1.92,1.92 0 0 1 -1.92,1.92 h -33.42 a 1.92,1.92 0 0 1 -1.92,-1.92 v -37.24 a 1.91,1.91 0 0 1 1.92,-1.91 h 33.42 a 1.91,1.91 0 0 1 1.92,1.91 z m 0,-85.55 A 1.91,1.91 0 0 1 400.3,760 H 366.88 A 1.91,1.91 0 0 1 365,758.1 v -37.23 a 1.91,1.91 0 0 1 1.92,-1.92 h 33.38 a 1.91,1.91 0 0 1 1.92,1.92 z m 0,-85.53 a 1.92,1.92 0 0 1 -1.92,1.92 h -33.42 a 1.92,1.92 0 0 1 -1.92,-1.92 v -37.26 a 1.92,1.92 0 0 1 1.92,-1.91 h 33.42 a 1.92,1.92 0 0 1 1.92,1.91 z m 0,-85.55 a 1.92,1.92 0 0 1 -1.92,1.92 H 366.88 A 1.92,1.92 0 0 1 365,587 v -37.24 a 1.9,1.9 0 0 1 1.92,-1.89 h 33.38 a 1.9,1.9 0 0 1 1.92,1.89 z m 0,-85.53 a 1.92,1.92 0 0 1 -1.92,1.91 h -33.42 a 1.92,1.92 0 0 1 -1.92,-1.91 v -37.26 a 1.92,1.92 0 0 1 1.92,-1.92 h 33.42 a 1.92,1.92 0 0 1 1.92,1.92 z m 65.55,342.16 a 1.92,1.92 0 0 1 -1.93,1.92 h -33.41 a 1.91,1.91 0 0 1 -1.92,-1.92 v -37.24 a 1.91,1.91 0 0 1 1.92,-1.91 h 33.41 a 1.91,1.91 0 0 1 1.93,1.91 z m 0,-85.55 a 1.91,1.91 0 0 1 -1.93,1.92 h -33.41 a 1.9,1.9 0 0 1 -1.92,-1.92 v -37.23 a 1.9,1.9 0 0 1 1.92,-1.92 h 33.41 a 1.91,1.91 0 0 1 1.93,1.92 z m 0,-85.53 a 1.92,1.92 0 0 1 -1.93,1.92 h -33.41 a 1.91,1.91 0 0 1 -1.92,-1.92 v -37.26 a 1.91,1.91 0 0 1 1.92,-1.91 h 33.41 a 1.92,1.92 0 0 1 1.93,1.91 z m 0,-85.55 a 1.92,1.92 0 0 1 -1.93,1.92 h -33.41 a 1.91,1.91 0 0 1 -1.92,-1.92 v -37.26 a 1.9,1.9 0 0 1 1.92,-1.89 h 33.41 a 1.9,1.9 0 0 1 1.93,1.89 z m 0,-85.53 a 1.92,1.92 0 0 1 -1.93,1.91 h -33.41 a 1.91,1.91 0 0 1 -1.92,-1.91 v -37.26 a 1.91,1.91 0 0 1 1.92,-1.92 h 33.41 a 1.92,1.92 0 0 1 1.93,1.92 z"
       id="path6450"
       inkscape:connector-curvature="0"
       style="fill:#ffffff" />
    <path
       class="cls-2"
       d="m 839.32,728.92 a 3,3 0 0 1 -3,3 H 686.17 a 3,3 0 0 1 -3,-3 v -30 a 3,3 0 0 1 3,-3 h 150.15 a 3,3 0 0 1 3,3 z"
       id="path6452"
       inkscape:connector-curvature="0"
       style="fill:#ffffff" />
    <path
       class="cls-2"
       d="m 665.4,488.65 a 3.85,3.85 0 0 0 -3.67,-2.79 3.81,3.81 0 0 0 -2.09,0.69 l -0.27,0.18 -1.23,1.56 -143.48,182 -0.66,0.89 a 4.13,4.13 0 0 0 -1.25,2.84 v 223.65 a 3.57,3.57 0 0 0 3.58,3.56 h 145.84 a 3.56,3.56 0 0 0 3.57,-3.56 V 490.15 a 3.71,3.71 0 0 0 -0.34,-1.5 z m -60.4,98.84 1,-1.28 c 9.81,-12.6 26.36,-33 34.42,-42.86 l 1.06,-1.26 a 4.17,4.17 0 0 1 3.21,-1.52 4.09,4.09 0 0 1 4,3.34 V 590 a 4.12,4.12 0 0 1 -4,4.1 c -0.07,0 -0.12,0 -0.18,0 -0.06,0 -0.12,0 -0.19,0 h -35.81 c -0.07,0 -0.12,0 -0.18,0 -0.06,0 -0.12,0 -0.18,0 a 4.13,4.13 0 0 1 -4,-4.1 4.17,4.17 0 0 1 0.85,-2.51 z m -22.7,254.9 a 3.56,3.56 0 0 1 -3.57,3.57 h -43.52 a 3.56,3.56 0 0 1 -3.57,-3.57 v -27.23 a 3.56,3.56 0 0 1 3.57,-3.56 h 43.51 a 3.56,3.56 0 0 1 3.57,3.56 z m 0,-50.32 a 3.56,3.56 0 0 1 -3.57,3.57 h -43.52 a 3.56,3.56 0 0 1 -3.57,-3.57 v -27.23 a 3.55,3.55 0 0 1 3.57,-3.57 h 43.51 a 3.55,3.55 0 0 1 3.57,3.57 z m 0,-50.32 a 3.56,3.56 0 0 1 -3.57,3.56 h -43.52 a 3.56,3.56 0 0 1 -3.57,-3.56 v -27.24 a 3.56,3.56 0 0 1 3.57,-3.57 h 43.51 a 3.56,3.56 0 0 1 3.57,3.57 z m 0.12,-110.27 v 60 a 3.58,3.58 0 0 1 -3.57,3.57 h -43.5 a 3.57,3.57 0 0 1 -3.59,-3.57 v -7.55 a 4.14,4.14 0 0 1 0.27,-1.33 2.92,2.92 0 0 1 0.22,-0.42 3,3 0 0 1 0.32,-0.47 c 0.1,-0.17 0.27,-0.39 0.4,-0.58 5.56,-8 30.66,-38.88 41.2,-51.8 l 1.06,-1.28 a 4.15,4.15 0 0 1 3.21,-1.51 4.1,4.1 0 0 1 4,3.33 z m 66.38,210.91 a 3.57,3.57 0 0 1 -3.57,3.57 h -43.5 a 3.57,3.57 0 0 1 -3.59,-3.57 v -27.23 a 3.57,3.57 0 0 1 3.59,-3.56 h 43.5 a 3.57,3.57 0 0 1 3.57,3.56 z m 0,-50.32 a 3.57,3.57 0 0 1 -3.57,3.57 h -43.5 a 3.57,3.57 0 0 1 -3.59,-3.57 v -27.23 a 3.56,3.56 0 0 1 3.59,-3.57 h 43.5 a 3.57,3.57 0 0 1 3.57,3.57 z m 0,-50.32 a 3.58,3.58 0 0 1 -3.57,3.56 h -43.5 a 3.57,3.57 0 0 1 -3.59,-3.56 v -27.24 a 3.57,3.57 0 0 1 3.59,-3.57 h 43.5 a 3.57,3.57 0 0 1 3.57,3.57 z m 0,-50.33 a 3.57,3.57 0 0 1 -3.57,3.56 h -43.5 a 3.57,3.57 0 0 1 -3.59,-3.56 v -27.23 a 3.57,3.57 0 0 1 3.59,-3.57 h 43.5 a 3.57,3.57 0 0 1 3.57,3.57 z m 0,-50.33 a 3.57,3.57 0 0 1 -3.57,3.57 h -43.5 a 3.57,3.57 0 0 1 -3.59,-3.57 v -27.23 a 3.57,3.57 0 0 1 3.59,-3.58 h 43.5 a 3.57,3.57 0 0 1 3.57,3.58 z"
       id="path6454"
       inkscape:connector-curvature="0"
       style="fill:#ffffff" />
  </g>
</svg>
