<?xml version="1.0" encoding="UTF-8" standalone="no"?>
<svg
   xmlns:dc="http://purl.org/dc/elements/1.1/"
   xmlns:cc="http://creativecommons.org/ns#"
   xmlns:rdf="http://www.w3.org/1999/02/22-rdf-syntax-ns#"
   xmlns:svg="http://www.w3.org/2000/svg"
   xmlns="http://www.w3.org/2000/svg"
   xmlns:sodipodi="http://sodipodi.sourceforge.net/DTD/sodipodi-0.dtd"
   xmlns:inkscape="http://www.inkscape.org/namespaces/inkscape"
   id="Layer_1"
   data-name="Layer 1"
   viewBox="0 0 1000 1000"
   version="1.1"
   sodipodi:docname="legend_goal_8.svg"
   inkscape:version="0.92.2 5c3e80d, 2017-08-06">
  <metadata
     id="metadata5377">
    <rdf:RDF>
      <cc:Work
         rdf:about="">
        <dc:format>image/svg+xml</dc:format>
        <dc:type
           rdf:resource="http://purl.org/dc/dcmitype/StillImage" />
        <dc:title>Artboard 1</dc:title>
      </cc:Work>
    </rdf:RDF>
  </metadata>
  <sodipodi:namedview
     pagecolor="#ffffff"
     bordercolor="#666666"
     borderopacity="1"
     objecttolerance="10"
     gridtolerance="10"
     guidetolerance="10"
     inkscape:pageopacity="0"
     inkscape:pageshadow="2"
     inkscape:window-width="1153"
     inkscape:window-height="587"
     id="namedview5375"
     showgrid="false"
     inkscape:zoom="0.3337544"
     inkscape:cx="187.72272"
     inkscape:cy="453.2197"
     inkscape:window-x="0"
     inkscape:window-y="0"
     inkscape:window-maximized="0"
     inkscape:current-layer="Layer_1" />
  <defs
     id="defs5332">
    <style
       id="style5330">
      .cls-1 {
        fill: #a21942;
      }

      .cls-2 {
        fill: #fff;
      }
    </style>
  </defs>
  <title
     id="title5334">Artboard 1</title>
  <rect
     style="fill:#a21942"
     x="0"
     height="1000.03"
     width="1000"
     y="-0.02"
     class="cls-1"
     data-name="&lt;Path&gt;"
     id="_Path_" />
  <g
     id="g5342"
     transform="matrix(1.4362161,0,0,1.4362161,-218.10806,-398.83211)">
    <path
       style="fill:#ffffff"
       inkscape:connector-curvature="0"
       d="m 694.16,492 -101.64,96.67 c -3.83,3.81 -5.8,6.62 -5.8,14.52 v 271 a 5.8,5.8 0 0 0 5.8,5.78 h 105 a 5.79,5.79 0 0 0 5.79,-5.78 V 494.42 c 0,-3.2 -2.5,-9 -9.14,-2.44"
       class="cls-2"
       data-name="&lt;Path&gt;"
       id="_Path_2" />
    <path
       style="fill:#ffffff"
       inkscape:connector-curvature="0"
       d="m 401.34,618 -101.65,96.63 c -3.82,3.82 -5.8,6.62 -5.8,14.51 v 145 a 5.8,5.8 0 0 0 5.8,5.77 h 105 a 5.79,5.79 0 0 0 5.79,-5.77 V 620.38 c 0,-3.21 -2.53,-9.06 -9.14,-2.43"
       class="cls-2"
       data-name="&lt;Path&gt;"
       id="_Path_3" />
    <path
       style="fill:#ffffff"
       inkscape:connector-curvature="0"
       d="m 740.36,374.72 a 2.84,2.84 0 0 0 -0.86,-2.2 3.06,3.06 0 0 0 -1.88,-0.83 h -0.56 -0.83 l -77.83,17.64 -1.41,0.15 a 3.14,3.14 0 0 0 -1.52,0.79 3,3 0 0 0 0,4.19 l 0.88,0.88 17.78,17.77 L 497.77,589.47 416.32,508 a 2.32,2.32 0 0 0 -3.32,0 l -22.1,22.11 -130.59,130.58 a 2.38,2.38 0 0 0 0,3.32 l 22.13,22.12 a 2.32,2.32 0 0 0 3.29,0 l 129,-128.92 59.1,59.12 a 2.31,2.31 0 0 0 0.19,0.28 l 22.11,22.08 a 2.31,2.31 0 0 0 3.31,0 l 200.11,-200.15 18.66,18.65 a 2.91,2.91 0 0 0 4.15,0 2.8,2.8 0 0 0 0.85,-1.92 v -0.24 l 17.09,-79.45 z"
       class="cls-2"
       data-name="&lt;Path&gt;"
       id="_Path_4" />
    <path
       style="fill:#ffffff"
       inkscape:connector-curvature="0"
       d="m 548.33,634.92 -49.18,49.58 a 2.35,2.35 0 0 1 -3.17,-0.12 L 451.43,639 c -8.16,-8.12 -9.92,-1.53 -9.92,1.66 v 233.51 a 5.77,5.77 0 0 0 5.76,5.78 h 105 a 5.79,5.79 0 0 0 5.77,-5.78 V 636.75 c 0,-3.19 -2.51,-9.06 -9.73,-1.83"
       class="cls-2"
       data-name="&lt;Path&gt;"
       id="_Path_5" />
  </g>
</svg>
