<?xml version="1.0" encoding="UTF-8" standalone="no"?>
<svg
   xmlns:dc="http://purl.org/dc/elements/1.1/"
   xmlns:cc="http://creativecommons.org/ns#"
   xmlns:rdf="http://www.w3.org/1999/02/22-rdf-syntax-ns#"
   xmlns:svg="http://www.w3.org/2000/svg"
   xmlns="http://www.w3.org/2000/svg"
   xmlns:sodipodi="http://sodipodi.sourceforge.net/DTD/sodipodi-0.dtd"
   xmlns:inkscape="http://www.inkscape.org/namespaces/inkscape"
   id="Layer_1"
   data-name="Layer 1"
   viewBox="0 0 1000 1000"
   version="1.1"
   sodipodi:docname="legend_goal_6.svg"
   inkscape:version="0.92.2 5c3e80d, 2017-08-06">
  <metadata
     id="metadata4750">
    <rdf:RDF>
      <cc:Work
         rdf:about="">
        <dc:format>image/svg+xml</dc:format>
        <dc:type
           rdf:resource="http://purl.org/dc/dcmitype/StillImage" />
        <dc:title>Artboard 1</dc:title>
      </cc:Work>
    </rdf:RDF>
  </metadata>
  <sodipodi:namedview
     pagecolor="#ffffff"
     bordercolor="#666666"
     borderopacity="1"
     objecttolerance="10"
     gridtolerance="10"
     guidetolerance="10"
     inkscape:pageopacity="0"
     inkscape:pageshadow="2"
     inkscape:window-width="1373"
     inkscape:window-height="729"
     id="namedview4748"
     showgrid="false"
     inkscape:zoom="0.236"
     inkscape:cx="-300.84746"
     inkscape:cy="500"
     inkscape:window-x="0"
     inkscape:window-y="0"
     inkscape:window-maximized="0"
     inkscape:current-layer="Layer_1" />
  <defs
     id="defs4691">
    <style
       id="style4689">
      .cls-1 {
        fill: #26bde2;
      }

      .cls-2 {
        fill: #fff;
      }
    </style>
  </defs>
  <title
     id="title4693">Artboard 1</title>
  <rect
     class="cls-1"
     width="1000"
     height="1000"
     id="rect4695" />
  <path
     class="cls-2"
     d="m 755.20752,149.38114 a 6.0530501,6.0530501 0 0 0 -4.53287,-1.97622 h -501.3805 a 5.6522773,5.6522773 0 0 0 -5.76283,6.7164 l 84.30047,509.4374 a 5.8872131,5.8872131 0 0 0 5.77665,4.90601 h 103.38554 l 7.07572,82.9185 H 400.56513 L 501.79479,852.59907 603.25938,751.14829 h -43.49075 l 6.9928,-82.6421 h 105.20975 a 5.7766551,5.7766551 0 0 0 5.74901,-5.00275 l 78.77257,-509.34066 a 6.0254106,6.0254106 0 0 0 -1.28524,-4.78164 z M 561.427,557.21576 a 80.430939,80.430939 0 0 1 -59.82569,20.86782 80.472398,80.472398 0 0 1 -59.89479,-20.86782 c -37.56208,-37.52062 -24.15692,-84.20374 -11.0558,-108.33302 8.07073,-15.10498 65.782,-101.76863 70.75711,-109.17601 v -0.58043 l 0.22112,0.27639 0.19348,-0.27639 v 0.58043 c 4.83691,7.37974 62.64492,93.97429 70.71565,109.17601 13.05966,24.12928 26.42336,70.8124 -11.11108,108.33302 z M 720.47849,256.56712 c -13.58481,-5.98395 -30.81804,-3.82807 -47.34646,2.86068 -62.18887,25.22105 -104.56022,34.2868 -169.98291,13.81975 -41.21049,-12.90764 -79.76759,-39.91143 -125.3313,-23.49357 -30.25143,10.87614 -58.4299,21.25477 -92.59232,20.9922 L 265.47708,169.5027 h 469.1943 z"
     id="path4745"
     inkscape:connector-curvature="0"
     style="fill:#ffffff;stroke-width:1.38197494" />
</svg>
